<svg width="164" height="164" viewBox="0 0 164 164" fill="none" xmlns="http://www.w3.org/2000/svg">
<path fill-rule="evenodd" clip-rule="evenodd" d="M88.5147 133.018C88.8543 137.26 89.1803 141.332 89.2213 144.051C92.5245 145.445 100.352 149.122 104.708 153.268C96.7632 154.068 59.8645 153.158 55.6047 152.442C61.0626 149.159 67.2901 146.166 73.2989 144.114C73.2005 139.213 73.5005 134.595 73.8183 129.695C74.0697 125.824 74.3321 121.776 74.4182 117.276C73.8176 117.162 72.8247 116.904 71.8421 116.648C70.923 116.409 70.0128 116.172 69.4408 116.059C62.3053 114.647 57.1059 110.692 53.3491 105.555C48.2388 107.803 41.8583 105.104 37.6597 102.218C28.8469 96.1587 17.1199 84.0097 22.8731 72.3315C26.3069 65.3619 37.6034 63.163 44.5314 62.8539C44.9161 59.6068 45.7821 56.4479 47.7971 54.341C51.4502 50.5207 57.7331 48.919 62.7575 48.191C73.9283 46.5723 85.3591 46.4234 96.4475 49.0078C96.7161 49.0698 97.0003 49.1347 97.2983 49.2029C102.285 50.3427 111.216 52.3842 116.69 56.7269C117.935 57.8034 118.932 59.039 119.569 60.4657C120.139 61.7418 120.469 64.1995 120.481 67.4028C121.378 67.647 122.35 67.8894 123.37 68.1435C130.039 69.8052 138.735 71.9721 141.478 78.487C144.082 84.6732 140.78 90.5348 137.161 95.4111C130.397 104.527 117.674 116.23 105.232 110.015C103.041 112.08 100.573 113.775 97.8046 114.965C95.031 116.157 91.466 117.129 87.7432 117.608C87.5526 120.997 88.0466 127.169 88.5147 133.018ZM32.2339 71.5047C22.5407 74.8967 29.1401 89.0745 34.661 93.4451C36.3394 94.7735 38.1243 95.9762 39.9402 97.1058C42.0648 98.428 46.8247 100.202 49.4103 99.2207C48.1684 96.4019 47.223 93.2791 46.3345 90.1774C44.4932 83.7493 43.6589 76.6208 43.398 69.9207C39.6343 69.7547 35.8102 70.2528 32.2339 71.5047ZM135.074 85.744C130.941 95.9318 121.272 105.726 109.423 104.56C114.619 95.4138 119.789 84.4347 121.005 73.9134C121.322 73.9811 121.641 74.0439 121.961 74.1068C122.722 74.2565 123.488 74.4061 124.225 74.6302C128.982 76.0782 137.853 78.8949 135.074 85.744Z" stroke="white" stroke-width="3.41667" stroke-miterlimit="1.5" stroke-linecap="round" stroke-linejoin="round"/>
<path d="M97.2565 100.975C85.7758 98.8168 74.317 98.4431 65.069 99.7038C61.2252 100.228 57.1867 100.526 53.5845 102.119" stroke="white" stroke-width="3.41667" stroke-miterlimit="1.5" stroke-linecap="round" stroke-linejoin="round"/>
<path d="M108.379 93.987C105.092 92.975 101.854 91.948 98.4731 91.2838C85.1084 88.6584 71.8941 88.3994 58.5127 90.5089" stroke="white" stroke-width="3.41667" stroke-miterlimit="1.5" stroke-linecap="round" stroke-linejoin="round"/>
<path d="M41.3892 23.4318C41.0006 26.7852 40.5287 30.2657 40.4619 33.635" stroke="white" stroke-width="3.41667" stroke-miterlimit="1.5" stroke-linecap="round" stroke-linejoin="round"/>
<path d="M31.5815 35.8454C33.491 35.714 35.4087 35.7421 37.3205 35.8066" stroke="white" stroke-width="3.41667" stroke-miterlimit="1.5" stroke-linecap="round" stroke-linejoin="round"/>
<path d="M43.5493 35.6733C45.7343 36.0445 47.8456 35.9443 50.0438 35.9797" stroke="white" stroke-width="3.41667" stroke-miterlimit="1.5" stroke-linecap="round" stroke-linejoin="round"/>
<path d="M40.1934 46.4708C39.8099 44.3328 39.4234 41.294 39.981 39.1275" stroke="white" stroke-width="3.41667" stroke-miterlimit="1.5" stroke-linecap="round" stroke-linejoin="round"/>
<path d="M113.973 120.274C113.64 122.064 113.488 123.881 113.321 125.692" stroke="white" stroke-width="3.41667" stroke-miterlimit="1.5" stroke-linecap="round" stroke-linejoin="round"/>
<path d="M107.566 128.009C108.455 127.912 109.34 127.815 110.232 127.751" stroke="white" stroke-width="3.41667" stroke-miterlimit="1.5" stroke-linecap="round" stroke-linejoin="round"/>
<path d="M112.993 130.252C112.89 132.198 112.945 134.142 112.884 136.089" stroke="white" stroke-width="3.41667" stroke-miterlimit="1.5" stroke-linecap="round" stroke-linejoin="round"/>
<path d="M115.275 128.509C116.645 128.424 118.022 128.322 119.394 128.311" stroke="white" stroke-width="3.41667" stroke-miterlimit="1.5" stroke-linecap="round" stroke-linejoin="round"/>
<path d="M114.446 34.0005C113.796 28.6483 113.683 24.5679 108.52 21.7789C113.029 20.5589 116.136 14.8059 116.87 10.4199C117.677 14.605 118.335 19.4927 121.668 22.5074C117.444 24.2302 114.949 29.1123 114.447 33.4456" stroke="white" stroke-width="3.41667" stroke-miterlimit="1.5" stroke-linecap="round" stroke-linejoin="round"/>
<path fill-rule="evenodd" clip-rule="evenodd" d="M52.8858 131.742C52.6447 129.535 52.0712 126.931 49.71 126.173C51.8468 125.306 52.9304 122.962 53.1993 120.771C53.2599 122.634 53.7103 125.125 55.652 125.875C53.4784 126.754 53.387 129.706 52.8858 131.742Z" stroke="white" stroke-width="3.41667" stroke-miterlimit="1.5" stroke-linecap="round" stroke-linejoin="round"/>
</svg>
