<svg width="28" height="29" viewBox="0 0 28 29" fill="none" xmlns="http://www.w3.org/2000/svg">
<path d="M27.5 14.5C27.5 22.2487 21.4395 28.5 14 28.5C6.56055 28.5 0.5 22.2487 0.5 14.5C0.5 6.75133 6.56055 0.5 14 0.5C21.4395 0.5 27.5 6.75133 27.5 14.5Z" stroke="rgba(255,255,255,0.1)"/>
<circle cx="14" cy="14.5" r="11.5" fill="#1B1B1B"/>
<path d="M21.5231 9.64787L20.8392 10.3318C21.1203 10.7642 21.2975 11.2559 21.3568 11.7683C21.4162 12.2807 21.356 12.7999 21.1811 13.2851C20.8784 14.1247 20.2554 14.8103 19.4486 15.1919C18.6417 15.5735 17.7166 15.62 16.8755 15.3214C16.6344 15.2358 16.4047 15.121 16.1916 14.9794L13.9999 17.1711L12.088 15.2437C11.6378 15.5437 11.124 15.735 10.5872 15.8024C10.0503 15.8698 9.50521 15.8116 8.99476 15.6323C8.56746 15.4801 8.17444 15.245 7.83826 14.9405C7.50209 14.636 7.2294 14.2681 7.03585 13.8579C6.8423 13.4477 6.73171 13.0033 6.71044 12.5502C6.68916 12.0971 6.75763 11.6443 6.91189 11.2178C7.00672 10.9477 7.13742 10.6915 7.30048 10.4561L6.47666 9.63232L6.32122 9.89657C5.4879 11.2597 5.03245 12.8201 5.00167 14.4174C4.97089 16.0148 5.36588 17.5915 6.14606 18.9858C6.92625 20.38 8.06351 21.5414 9.44104 22.3506C10.8186 23.1599 12.3867 23.5879 13.9843 23.5907H13.9999C15.5961 23.5916 17.1637 23.1677 18.542 22.3626C19.9202 21.5575 21.0594 20.4001 21.8426 19.0093C22.6259 17.6185 23.0249 16.0443 22.9988 14.4483C22.9727 12.8524 22.5224 11.2921 21.6941 9.92766L21.5231 9.64787Z" fill="#00A6C4"/>
<path d="M8.31153 11.4666C8.06938 11.7894 7.93848 12.1821 7.93848 12.5857C7.9393 13.0719 8.1328 13.538 8.4766 13.8818C8.8204 14.2256 9.28645 14.4191 9.77265 14.4199C10.1791 14.422 10.5741 14.2848 10.8918 14.0313L8.31153 11.4666Z" fill="#00A6C4"/>
<path d="M17.3105 13.8761C17.6124 14.0828 17.9706 14.1913 18.3364 14.187C18.8226 14.1862 19.2887 13.9926 19.6325 13.6488C19.9763 13.3051 20.1698 12.839 20.1706 12.3528C20.1727 11.9873 20.0643 11.6297 19.8597 11.3269L17.3105 13.8761Z" fill="#00A6C4"/>
<path d="M14.0305 15.803L6.60059 8.34197L6.89592 8.03109C7.79634 7.0708 8.88479 6.30613 10.0935 5.78467C11.3022 5.26321 12.6053 4.99612 13.9217 5.00004H13.9373C15.2856 5.00198 16.6186 5.28655 17.8501 5.8354C19.0817 6.38425 20.1845 7.18519 21.0875 8.18653L21.3672 8.49741L14.0305 15.803ZM7.81301 8.34197L14.0305 14.5751L20.1704 8.46632C18.5233 6.81202 16.2873 5.8785 13.9528 5.8705H13.9373C11.6505 5.85785 9.45052 6.74565 7.81301 8.34197Z" fill="#00A6C4"/>
</svg>
