<svg width="28" height="28" viewBox="0 0 28 28" fill="none" xmlns="http://www.w3.org/2000/svg">
<circle cx="14" cy="14" r="13.5" stroke="rgba(255,255,255,0.1)"/>
<circle cx="14.0001" cy="13.9999" r="11.9259" fill="#1B1B1B"/>
<g clip-path="url(#clip0_590_866)">
<path d="M18.0833 11.2627C17.7917 11.0956 17.4167 11.0956 17.0833 11.2627L14.75 12.6418L13.1667 13.5194L10.875 14.8985C10.5833 15.0657 10.2083 15.0657 9.875 14.8985L8.08333 13.812C7.79167 13.6448 7.58333 13.3105 7.58333 12.9344V10.8448C7.58333 10.5105 7.75 10.1762 8.08333 9.96721L9.875 8.92243C10.1667 8.75527 10.5417 8.75527 10.875 8.92243L12.6667 10.009C12.9583 10.1762 13.1667 10.5105 13.1667 10.8866V12.2657L14.75 11.3463V9.92542C14.75 9.59109 14.5833 9.25676 14.25 9.0478L10.9167 7.08363C10.625 6.91646 10.25 6.91646 9.91667 7.08363L6.5 9.08959C6.16667 9.25676 6 9.59109 6 9.92542V13.8538C6 14.1881 6.16667 14.5224 6.5 14.7314L9.875 16.6956C10.1667 16.8627 10.5417 16.8627 10.875 16.6956L13.1667 15.3582L14.75 14.4388L17.0417 13.1015C17.3333 12.9344 17.7083 12.9344 18.0417 13.1015L19.8333 14.1463C20.125 14.3135 20.3333 14.6478 20.3333 15.0239V17.1135C20.3333 17.4478 20.1667 17.7821 19.8333 17.9911L18.0833 19.0359C17.7917 19.203 17.4167 19.203 17.0833 19.0359L15.2917 17.9911C15 17.8239 14.7917 17.4896 14.7917 17.1135V15.7762L13.2083 16.6956V18.0747C13.2083 18.409 13.375 18.7433 13.7083 18.9523L17.0833 20.9165C17.375 21.0836 17.75 21.0836 18.0833 20.9165L21.4583 18.9523C21.75 18.7851 21.9583 18.4508 21.9583 18.0747V14.1045C21.9583 13.7702 21.7917 13.4359 21.4583 13.2269L18.0833 11.2627Z" fill="#8247E5"/>
</g>
<defs>
<clipPath id="clip0_590_866">
<rect width="16" height="14" fill="white" transform="translate(6 7)"/>
</clipPath>
</defs>
</svg>
