<svg width="1276" height="1275" viewBox="0 0 1276 1275" fill="none" xmlns="http://www.w3.org/2000/svg">
<g style="mix-blend-mode:overlay" opacity="0.4">
<g style="mix-blend-mode:overlay" opacity="0.4">
<path d="M799.976 329.358C799.976 456.952 735.576 569.505 637.502 636.284C539.428 569.505 475.027 456.952 475.027 329.358C475.027 201.764 539.428 89.211 637.502 22.4316C735.576 89.211 799.976 201.764 799.976 329.358Z" stroke="white" stroke-opacity="0.6" stroke-width="1.875"/>
</g>
<g style="mix-blend-mode:overlay" opacity="0.4">
<path d="M799.976 329.358C799.976 456.952 735.575 569.505 637.501 636.284C539.428 569.505 475.027 456.952 475.027 329.358C475.027 201.764 539.428 89.211 637.501 22.4316C735.575 89.211 799.976 201.764 799.976 329.358Z" stroke="white" stroke-opacity="0.6" stroke-width="1.875"/>
</g>
<g style="mix-blend-mode:overlay" opacity="0.4">
<path d="M799.976 945.64C799.976 1073.23 735.575 1185.79 637.501 1252.57C539.428 1185.79 475.027 1073.23 475.027 945.64C475.027 818.046 539.428 705.493 637.501 638.714C735.575 705.493 799.976 818.046 799.976 945.64Z" stroke="white" stroke-opacity="0.6" stroke-width="1.875"/>
</g>
<g style="mix-blend-mode:overlay" opacity="0.4">
<path d="M329.359 475.024C456.953 475.024 569.506 539.424 636.285 637.498C569.506 735.572 456.953 799.973 329.359 799.973C201.765 799.973 89.212 735.572 22.4326 637.498C89.212 539.424 201.765 475.024 329.359 475.024Z" stroke="white" stroke-opacity="0.6" stroke-width="1.875"/>
</g>
<g style="mix-blend-mode:overlay" opacity="0.4">
<path d="M945.645 475.024C1073.24 475.024 1185.79 539.425 1252.57 637.498C1185.79 735.572 1073.24 799.973 945.645 799.973C818.05 799.973 705.498 735.572 638.718 637.498C705.498 539.425 818.05 475.024 945.645 475.024Z" stroke="white" stroke-opacity="0.6" stroke-width="1.875"/>
</g>
<g style="mix-blend-mode:overlay" opacity="0.4">
<path d="M381.909 400.805C505.155 433.829 597.205 525.166 636.326 637.181C546.438 714.63 421.052 747.705 297.806 714.681C174.559 681.658 82.5099 590.321 43.3894 478.305C133.277 400.856 258.663 367.781 381.909 400.805Z" stroke="white" stroke-opacity="0.6" stroke-width="1.875"/>
</g>
<g style="mix-blend-mode:overlay" opacity="0.4">
<path d="M977.192 560.312C1100.44 593.336 1192.49 684.673 1231.61 796.689C1141.72 874.137 1016.34 907.212 893.089 874.189C769.843 841.165 677.793 749.828 638.673 637.812C728.56 560.364 853.946 527.288 977.192 560.312Z" stroke="white" stroke-opacity="0.6" stroke-width="1.875"/>
</g>
<g style="mix-blend-mode:overlay" opacity="0.4">
<path d="M893.092 400.801C769.846 433.825 677.796 525.162 638.676 637.178C728.563 714.626 853.949 747.702 977.195 714.678C1100.44 681.654 1192.49 590.317 1231.61 478.301C1141.72 400.853 1016.34 367.777 893.092 400.801Z" stroke="white" stroke-opacity="0.6" stroke-width="1.875"/>
</g>
<g style="mix-blend-mode:overlay" opacity="0.4">
<path d="M297.809 560.314C174.562 593.337 82.5129 684.674 43.3923 796.69C133.28 874.139 258.665 907.214 381.912 874.19C505.158 841.166 597.208 749.829 636.328 637.813C546.441 560.365 421.055 527.29 297.809 560.314Z" stroke="white" stroke-opacity="0.6" stroke-width="1.875"/>
</g>
<g style="mix-blend-mode:overlay" opacity="0.4">
<path d="M451.883 342.719C562.383 406.516 627.656 518.565 636.452 636.889C529.582 688.434 399.909 687.93 289.409 624.133C178.909 560.336 113.636 448.287 104.84 329.963C211.71 278.418 341.384 278.922 451.883 342.719Z" stroke="white" stroke-opacity="0.6" stroke-width="1.875"/>
</g>
<g style="mix-blend-mode:overlay" opacity="0.4">
<path d="M985.599 650.866C1096.1 714.663 1161.37 826.712 1170.17 945.036C1063.3 996.581 933.625 996.077 823.125 932.28C712.625 868.483 647.352 756.434 638.556 638.11C745.426 586.565 875.1 587.069 985.599 650.866Z" stroke="white" stroke-opacity="0.6" stroke-width="1.875"/>
</g>
<g style="mix-blend-mode:overlay" opacity="0.4">
<path d="M823.121 342.719C712.621 406.516 647.348 518.565 638.552 636.889C745.422 688.434 875.096 687.93 985.596 624.133C1096.1 560.336 1161.37 448.287 1170.16 329.963C1063.29 278.418 933.621 278.922 823.121 342.719Z" stroke="white" stroke-opacity="0.6" stroke-width="1.875"/>
</g>
<g style="mix-blend-mode:overlay" opacity="0.4">
<path d="M289.405 650.866C178.905 714.663 113.632 826.712 104.836 945.036C211.706 996.581 341.38 996.077 451.88 932.28C562.379 868.483 627.653 756.434 636.448 638.11C529.579 586.565 399.905 587.069 289.405 650.866Z" stroke="white" stroke-opacity="0.6" stroke-width="1.875"/>
</g>
<g style="mix-blend-mode:overlay" opacity="0.4">
<path d="M534.499 304.719C624.722 394.942 658.771 520.067 636.642 636.636C520.073 658.764 394.948 624.715 304.726 534.493C214.503 444.27 180.454 319.145 202.583 202.576C319.152 180.448 444.277 214.496 534.499 304.719Z" stroke="white" stroke-opacity="0.6" stroke-width="1.875"/>
</g>
<g style="mix-blend-mode:overlay" opacity="0.4">
<path d="M970.272 740.503C1060.49 830.726 1094.54 955.851 1072.41 1072.42C955.846 1094.55 830.721 1060.5 740.498 970.277C650.276 880.054 616.227 754.929 638.356 638.36C754.924 616.232 880.049 650.28 970.272 740.503Z" stroke="white" stroke-opacity="0.6" stroke-width="1.875"/>
</g>
<g style="mix-blend-mode:overlay" opacity="0.4">
<path d="M740.501 304.721C650.278 394.944 616.229 520.069 638.358 636.638C754.927 658.766 880.052 624.717 970.274 534.495C1060.5 444.272 1094.55 319.147 1072.42 202.578C955.848 180.45 830.723 214.498 740.501 304.721Z" stroke="white" stroke-opacity="0.6" stroke-width="1.875"/>
</g>
<g style="mix-blend-mode:overlay" opacity="0.4">
<path d="M304.724 740.501C214.502 830.724 180.453 955.849 202.581 1072.42C319.15 1094.55 444.275 1060.5 534.498 970.275C624.721 880.052 658.769 754.927 636.641 638.358C520.072 616.23 394.947 650.279 304.724 740.501Z" stroke="white" stroke-opacity="0.6" stroke-width="1.875"/>
</g>
<g style="mix-blend-mode:overlay" opacity="0.4">
<path d="M624.137 289.403C687.934 399.903 688.438 529.576 636.893 636.446C518.569 627.65 406.52 562.377 342.723 451.877C278.926 341.378 278.422 211.704 329.967 104.834C448.291 113.63 560.34 178.903 624.137 289.403Z" stroke="white" stroke-opacity="0.6" stroke-width="1.875"/>
</g>
<g style="mix-blend-mode:overlay" opacity="0.4">
<path d="M932.278 823.121C996.075 933.62 996.579 1063.29 945.034 1170.16C826.71 1161.37 714.661 1096.09 650.864 985.595C587.067 875.095 586.563 745.421 638.108 638.552C756.432 647.348 868.481 712.621 932.278 823.121Z" stroke="white" stroke-opacity="0.6" stroke-width="1.875"/>
</g>
<g style="mix-blend-mode:overlay" opacity="0.4">
<path d="M650.864 289.403C587.067 399.903 586.563 529.576 638.108 636.446C756.432 627.65 868.481 562.377 932.278 451.877C996.075 341.378 996.579 211.704 945.034 104.834C826.71 113.63 714.661 178.903 650.864 289.403Z" stroke="white" stroke-opacity="0.6" stroke-width="1.875"/>
</g>
<g style="mix-blend-mode:overlay" opacity="0.4">
<path d="M342.723 823.121C278.926 933.62 278.422 1063.29 329.967 1170.16C448.291 1161.37 560.34 1096.09 624.137 985.595C687.934 875.095 688.438 745.421 636.893 638.552C518.569 647.348 406.52 712.621 342.723 823.121Z" stroke="white" stroke-opacity="0.6" stroke-width="1.875"/>
</g>
<g style="mix-blend-mode:overlay" opacity="0.4">
<path d="M714.685 297.806C747.709 421.052 714.634 546.438 637.185 636.325C525.169 597.205 433.832 505.155 400.809 381.909C367.785 258.662 400.86 133.276 478.309 43.3892C590.324 82.5098 681.661 174.559 714.685 297.806Z" stroke="white" stroke-opacity="0.6" stroke-width="1.875"/>
</g>
<g style="mix-blend-mode:overlay" opacity="0.4">
<path d="M874.192 893.091C907.216 1016.34 874.14 1141.72 796.692 1231.61C684.676 1192.49 593.339 1100.44 560.316 977.194C527.292 853.947 560.367 728.561 637.815 638.674C749.831 677.795 841.168 769.844 874.192 893.091Z" stroke="white" stroke-opacity="0.6" stroke-width="1.875"/>
</g>
<g style="mix-blend-mode:overlay" opacity="0.4">
<path d="M560.316 297.806C527.292 421.052 560.367 546.438 637.816 636.325C749.831 597.205 841.168 505.155 874.192 381.909C907.216 258.662 874.141 133.276 796.692 43.3892C684.677 82.5098 593.339 174.559 560.316 297.806Z" stroke="white" stroke-opacity="0.6" stroke-width="1.875"/>
</g>
<g style="mix-blend-mode:overlay" opacity="0.4">
<path d="M400.809 893.091C367.785 1016.34 400.861 1141.72 478.309 1231.61C590.325 1192.49 681.662 1100.44 714.686 977.194C747.709 853.947 714.634 728.561 637.186 638.674C525.17 677.795 433.833 769.844 400.809 893.091Z" stroke="white" stroke-opacity="0.6" stroke-width="1.875"/>
</g>
</g>
<path d="M197 980C199.209 980 201 978.209 201 976C201 973.791 199.209 972 197 972C194.791 972 193 973.791 193 976C193 978.209 194.791 980 197 980Z" fill="#2DF8C7"/>
<path d="M299 1082C301.209 1082 303 1080.21 303 1078C303 1075.79 301.209 1074 299 1074C296.791 1074 295 1075.79 295 1078C295 1080.21 296.791 1082 299 1082Z" fill="#2DF8C7"/>
<path d="M295 984C297.209 984 299 982.209 299 980C299 977.791 297.209 976 295 976C292.791 976 291 977.791 291 980C291 982.209 292.791 984 295 984Z" fill="#2DF8C7"/>
<path d="M261 798C263.209 798 265 796.209 265 794C265 791.791 263.209 790 261 790C258.791 790 257 791.791 257 794C257 796.209 258.791 798 261 798Z" fill="#2DF8C7"/>
<path d="M217 884C219.209 884 221 882.209 221 880C221 877.791 219.209 876 217 876C214.791 876 213 877.791 213 880C213 882.209 214.791 884 217 884Z" fill="#2DF8C7"/>
<path d="M125 855C127.209 855 129 853.209 129 851C129 848.791 127.209 847 125 847C122.791 847 121 848.791 121 851C121 853.209 122.791 855 125 855Z" fill="#2DF8C7"/>
<path d="M168 768C170.209 768 172 766.209 172 764C172 761.791 170.209 760 168 760C165.791 760 164 761.791 164 764C164 766.209 165.791 768 168 768Z" fill="#2DF8C7"/>
<path d="M313 890C315.209 890 317 888.209 317 886C317 883.791 315.209 882 313 882C310.791 882 309 883.791 309 886C309 888.209 310.791 890 313 890Z" fill="#2DF8C7"/>
<path d="M975 201C977.209 201 979 199.209 979 197C979 194.791 977.209 193 975 193C972.791 193 971 194.791 971 197C971 199.209 972.791 201 975 201Z" fill="#2DF8C7"/>
<path d="M880 220C882.209 220 884 218.209 884 216C884 213.791 882.209 212 880 212C877.791 212 876 213.791 876 216C876 218.209 877.791 220 880 220Z" fill="#2DF8C7"/>
<path d="M851 128C853.209 128 855 126.209 855 124C855 121.791 853.209 120 851 120C848.791 120 847 121.791 847 124C847 126.209 848.791 128 851 128Z" fill="#2DF8C7"/>
<path d="M764 172C766.209 172 768 170.209 768 168C768 165.791 766.209 164 764 164C761.791 164 760 165.791 760 168C760 170.209 761.791 172 764 172Z" fill="#2DF8C7"/>
<path d="M794 264C796.209 264 798 262.209 798 260C798 257.791 796.209 256 794 256C791.791 256 790 257.791 790 260C790 262.209 791.791 264 794 264Z" fill="#2DF8C7"/>
<path d="M982 298C984.209 298 986 296.209 986 294C986 291.791 984.209 290 982 290C979.791 290 978 291.791 978 294C978 296.209 979.791 298 982 298Z" fill="#2DF8C7"/>
<path d="M1059 399C1061.21 399 1063 397.209 1063 395C1063 392.791 1061.21 391 1059 391C1056.79 391 1055 392.791 1055 395C1055 397.209 1056.79 399 1059 399Z" fill="#2DF8C7"/>
<path d="M1079 302C1081.21 302 1083 300.209 1083 298C1083 295.791 1081.21 294 1079 294C1076.79 294 1075 295.791 1075 298C1075 300.209 1076.79 302 1079 302Z" fill="#2DF8C7"/>
<path d="M87 717C89.2091 717 91 715.209 91 713C91 710.791 89.2091 709 87 709C84.7909 709 83 710.791 83 713C83 715.209 84.7909 717 87 717Z" fill="#2DF8C7"/>
</svg>
