<svg width="689" height="686" viewBox="0 0 689 686" fill="none" xmlns="http://www.w3.org/2000/svg">
<g filter="url(#filter0_d_1_7)">
<path d="M310.147 55.0195C379.661 55.0984 414.418 55.1378 442.722 63.3533C517.748 85.1294 580.366 146.726 602.38 220.408C610.686 248.205 610.646 282.316 610.565 350.539L610.535 376.478C610.476 425.914 610.447 450.632 605.121 470.97C591.114 524.459 550.879 563.856 496.344 577.479C475.609 582.659 450.423 582.63 400.052 582.573C330.538 582.494 295.781 582.455 267.476 574.239C192.451 552.463 129.833 490.866 107.818 417.185C99.5128 389.388 99.553 355.276 99.6334 287.054L99.6639 261.115C99.7222 211.679 99.7514 186.961 105.077 166.623C119.085 113.134 159.32 73.7371 213.854 60.1137C234.589 54.9338 259.775 54.9624 310.147 55.0195Z" fill="black"/>
<path d="M310.147 55.0195C379.661 55.0984 414.418 55.1378 442.722 63.3533C517.748 85.1294 580.366 146.726 602.38 220.408C610.686 248.205 610.646 282.316 610.565 350.539L610.535 376.478C610.476 425.914 610.447 450.632 605.121 470.97C591.114 524.459 550.879 563.856 496.344 577.479C475.609 582.659 450.423 582.63 400.052 582.573C330.538 582.494 295.781 582.455 267.476 574.239C192.451 552.463 129.833 490.866 107.818 417.185C99.5128 389.388 99.553 355.276 99.6334 287.054L99.6639 261.115C99.7222 211.679 99.7514 186.961 105.077 166.623C119.085 113.134 159.32 73.7371 213.854 60.1137C234.589 54.9338 259.775 54.9624 310.147 55.0195Z" fill="url(#paint0_linear_1_7)"/>
<path d="M310.191 55.2672C379.725 55.3461 414.435 55.3883 442.692 63.5901C517.618 85.3374 580.153 146.853 602.139 220.437C610.431 248.188 610.393 282.253 610.313 350.495L610.282 376.434C610.224 425.883 610.193 450.565 604.876 470.87C590.887 524.288 550.705 563.633 496.243 577.238C475.542 582.41 450.393 582.383 400.007 582.326C330.474 582.247 295.764 582.204 267.506 574.003C192.581 552.255 130.045 490.74 108.06 417.156C99.768 389.405 99.8052 355.34 99.8857 287.098L99.9162 261.159C99.9745 211.71 100.005 187.027 105.322 166.723C119.311 113.304 159.493 73.9599 213.956 60.3546C234.656 55.1832 259.806 55.2101 310.191 55.2672Z" stroke="url(#paint1_linear_1_7)" stroke-width="0.5"/>
</g>
<path d="M323.906 48.5435C390.665 49.1976 423.99 49.5267 451.093 57.4007C527.274 79.5333 590.679 143.259 611.752 218.871C619.248 245.771 618.997 278.683 618.489 344.614L618.289 370.676C617.921 418.388 617.736 442.203 612.697 461.823C598.651 516.505 557.514 556.424 501.907 569.335C481.956 573.968 457.842 573.733 409.531 573.26C342.773 572.606 309.448 572.277 282.345 564.402C206.163 542.27 142.758 478.544 121.686 402.932C114.189 376.032 114.44 343.12 114.948 277.189L115.149 251.127C115.516 203.415 115.702 179.6 120.741 159.98C134.787 105.299 175.923 65.3786 231.53 52.4678C251.482 47.8355 275.596 48.0702 323.906 48.5435Z" fill="#10261D"/>
<path d="M323.906 48.5435C390.665 49.1976 423.99 49.5267 451.093 57.4007C527.274 79.5333 590.679 143.259 611.752 218.871C619.248 245.771 618.997 278.683 618.489 344.614L618.289 370.676C617.921 418.388 617.736 442.203 612.697 461.823C598.651 516.505 557.514 556.424 501.907 569.335C481.956 573.968 457.842 573.733 409.531 573.26C342.773 572.606 309.448 572.277 282.345 564.402C206.163 542.27 142.758 478.544 121.686 402.932C114.189 376.032 114.44 343.12 114.948 277.189L115.149 251.127C115.516 203.415 115.702 179.6 120.741 159.98C134.787 105.299 175.923 65.3786 231.53 52.4678C251.482 47.8355 275.596 48.0702 323.906 48.5435Z" fill="url(#paint2_linear_1_7)"/>
<path d="M323.906 48.5435C390.665 49.1976 423.99 49.5267 451.093 57.4007C527.274 79.5333 590.679 143.259 611.752 218.871C619.248 245.771 618.997 278.683 618.489 344.614L618.289 370.676C617.921 418.388 617.736 442.203 612.697 461.823C598.651 516.505 557.514 556.424 501.907 569.335C481.956 573.968 457.842 573.733 409.531 573.26C342.773 572.606 309.448 572.277 282.345 564.402C206.163 542.27 142.758 478.544 121.686 402.932C114.189 376.032 114.44 343.12 114.948 277.189L115.149 251.127C115.516 203.415 115.702 179.6 120.741 159.98C134.787 105.299 175.923 65.3786 231.53 52.4678C251.482 47.8355 275.596 48.0702 323.906 48.5435Z" stroke="url(#paint3_linear_1_7)" stroke-width="0.5"/>
<defs>
<filter id="filter0_d_1_7" x="0.618713" y="0.00842285" width="668.961" height="685.576" filterUnits="userSpaceOnUse" color-interpolation-filters="sRGB">
<feFlood flood-opacity="0" result="BackgroundImageFix"/>
<feColorMatrix in="SourceAlpha" type="matrix" values="0 0 0 0 0 0 0 0 0 0 0 0 0 0 0 0 0 0 127 0" result="hardAlpha"/>
<feOffset dx="-20" dy="24"/>
<feGaussianBlur stdDeviation="39.5"/>
<feComposite in2="hardAlpha" operator="out"/>
<feColorMatrix type="matrix" values="0 0 0 0 0 0 0 0 0 0.454167 0 0 0 0 0.290667 0 0 0 0.49 0"/>
<feBlend mode="normal" in2="BackgroundImageFix" result="effect1_dropShadow_1_7"/>
<feBlend mode="normal" in="SourceGraphic" in2="effect1_dropShadow_1_7" result="shape"/>
</filter>
<linearGradient id="paint0_linear_1_7" x1="306.084" y1="140.846" x2="531.874" y2="539.608" gradientUnits="userSpaceOnUse">
<stop stop-color="#185132"/>
<stop offset="0.933579" stop-color="#131313" stop-opacity="0.0731208"/>
<stop offset="1" stop-opacity="0"/>
</linearGradient>
<linearGradient id="paint1_linear_1_7" x1="308.049" y1="98.4717" x2="491.256" y2="562.205" gradientUnits="userSpaceOnUse">
<stop stop-color="#2E2E2E"/>
<stop offset="1" stop-color="#2E2E2E" stop-opacity="0"/>
</linearGradient>
<linearGradient id="paint2_linear_1_7" x1="662.996" y1="674.04" x2="-10.8858" y2="208.12" gradientUnits="userSpaceOnUse">
<stop stop-color="#90A1C2"/>
<stop stop-color="#1A1A1C" stop-opacity="0.05"/>
<stop offset="1" stop-color="#F4F4FF" stop-opacity="0.16"/>
</linearGradient>
<linearGradient id="paint3_linear_1_7" x1="594.062" y1="605.012" x2="-25.4499" y2="194.122" gradientUnits="userSpaceOnUse">
<stop stop-color="#2E2E2E"/>
<stop offset="1" stop-color="#49484E"/>
</linearGradient>
</defs>
</svg>
