<svg width="689" height="686" viewBox="0 0 689 686" fill="none" xmlns="http://www.w3.org/2000/svg">
<g filter="url(#filter0_d_1_40)">
<path d="M310.147 55.0195C466.855 55.1973 610.747 196.742 610.565 350.539L610.535 376.478C610.394 495.912 521.747 582.711 400.052 582.573C243.343 582.395 99.4522 440.851 99.6334 287.054L99.6639 261.115C99.8047 141.681 188.452 54.8815 310.147 55.0195Z" fill="black"/>
<path d="M310.147 55.0195C466.855 55.1973 610.747 196.742 610.565 350.539L610.535 376.478C610.394 495.912 521.747 582.711 400.052 582.573C243.343 582.395 99.4522 440.851 99.6334 287.054L99.6639 261.115C99.8047 141.681 188.452 54.8815 310.147 55.0195Z" fill="url(#paint0_linear_1_40)"/>
<path d="M310.191 55.2672C466.745 55.4448 610.494 196.85 610.313 350.495L610.282 376.434C610.142 495.75 521.582 582.463 400.007 582.326C243.454 582.148 99.7046 440.743 99.8857 287.098L99.9162 261.159C100.057 141.843 188.617 55.1293 310.191 55.2672Z" stroke="url(#paint1_linear_1_40)" stroke-width="0.5"/>
</g>
<path d="M323.906 48.5435C478.528 50.0583 619.666 191.909 618.49 344.614L618.289 370.676C617.376 489.135 529.477 574.435 409.531 573.26C254.91 571.745 113.772 429.894 114.948 277.189L115.149 251.127C116.062 132.668 203.961 47.3684 323.906 48.5435Z" fill="#10261D"/>
<path d="M323.906 48.5435C478.528 50.0583 619.666 191.909 618.49 344.614L618.289 370.676C617.376 489.135 529.477 574.435 409.531 573.26C254.91 571.745 113.772 429.894 114.948 277.189L115.149 251.127C116.062 132.668 203.961 47.3684 323.906 48.5435Z" fill="url(#paint2_linear_1_40)"/>
<path d="M323.906 48.5435C478.528 50.0583 619.666 191.909 618.49 344.614L618.289 370.676C617.376 489.135 529.477 574.435 409.531 573.26C254.91 571.745 113.772 429.894 114.948 277.189L115.149 251.127C116.062 132.668 203.961 47.3684 323.906 48.5435Z" stroke="url(#paint3_linear_1_40)" stroke-width="0.5"/>
<defs>
<filter id="filter0_d_1_40" x="0.633179" y="0.0193481" width="668.932" height="685.554" filterUnits="userSpaceOnUse" color-interpolation-filters="sRGB">
<feFlood flood-opacity="0" result="BackgroundImageFix"/>
<feColorMatrix in="SourceAlpha" type="matrix" values="0 0 0 0 0 0 0 0 0 0 0 0 0 0 0 0 0 0 127 0" result="hardAlpha"/>
<feOffset dx="-20" dy="24"/>
<feGaussianBlur stdDeviation="39.5"/>
<feComposite in2="hardAlpha" operator="out"/>
<feColorMatrix type="matrix" values="0 0 0 0 0 0 0 0 0 0.454167 0 0 0 0 0.290667 0 0 0 0.49 0"/>
<feBlend mode="normal" in2="BackgroundImageFix" result="effect1_dropShadow_1_40"/>
<feBlend mode="normal" in="SourceGraphic" in2="effect1_dropShadow_1_40" result="shape"/>
</filter>
<linearGradient id="paint0_linear_1_40" x1="306.084" y1="140.846" x2="531.874" y2="539.608" gradientUnits="userSpaceOnUse">
<stop stop-color="#185132"/>
<stop offset="0.933579" stop-color="#131313" stop-opacity="0.0731208"/>
<stop offset="1" stop-opacity="0"/>
</linearGradient>
<linearGradient id="paint1_linear_1_40" x1="308.049" y1="98.4717" x2="491.256" y2="562.205" gradientUnits="userSpaceOnUse">
<stop stop-color="#2E2E2E"/>
<stop offset="1" stop-color="#2E2E2E" stop-opacity="0"/>
</linearGradient>
<linearGradient id="paint2_linear_1_40" x1="662.996" y1="674.04" x2="-10.8858" y2="208.12" gradientUnits="userSpaceOnUse">
<stop stop-color="#90A1C2"/>
<stop stop-color="#1A1A1C" stop-opacity="0.05"/>
<stop offset="1" stop-color="#F4F4FF" stop-opacity="0.16"/>
</linearGradient>
<linearGradient id="paint3_linear_1_40" x1="594.063" y1="605.012" x2="-25.4499" y2="194.122" gradientUnits="userSpaceOnUse">
<stop stop-color="#2E2E2E"/>
<stop offset="1" stop-color="#49484E"/>
</linearGradient>
</defs>
</svg>
