<svg width="117" height="109" viewBox="0 0 117 109" fill="none" xmlns="http://www.w3.org/2000/svg">
<rect x="26.6716" y="0.9507" width="89.3773" height="89.3773" rx="44.6887" fill="#051110" stroke="#1F7165" stroke-width="1.90164"/>
<rect x="2.90164" y="16.9018" width="87.4757" height="87.4757" rx="43.7378" fill="#022920" stroke="#2DF8C7" stroke-width="3.80329"/>
<g filter="url(#filter0_d_2_520)">
<path d="M46.5 33.1369L52.216 45.0901L52.5734 45.8375L53.3546 45.5617L65.8486 41.1514L61.4383 53.6454L61.1625 54.4266L61.9099 54.784L73.8631 60.5L61.9099 66.216L61.1625 66.5734L61.4383 67.3546L65.8486 79.8486L53.3546 75.4383L52.5734 75.1625L52.216 75.9099L46.5 87.8631L40.784 75.9099L40.4266 75.1625L39.6454 75.4383L27.1514 79.8486L31.5617 67.3546L31.8375 66.5734L31.0901 66.216L19.1369 60.5L31.0901 54.784L31.8375 54.4266L31.5617 53.6454L27.1514 41.1514L39.6454 45.5617L40.4266 45.8375L40.784 45.0901L46.5 33.1369Z" stroke="#2DF8C7" stroke-width="1.84375" shape-rendering="crispEdges"/>
</g>
<defs>
<filter id="filter0_d_2_520" x="0.40625" y="16.25" width="92.1875" height="92.1875" filterUnits="userSpaceOnUse" color-interpolation-filters="sRGB">
<feFlood flood-opacity="0" result="BackgroundImageFix"/>
<feColorMatrix in="SourceAlpha" type="matrix" values="0 0 0 0 0 0 0 0 0 0 0 0 0 0 0 0 0 0 127 0" result="hardAlpha"/>
<feOffset dy="1.84375"/>
<feGaussianBlur stdDeviation="8.29688"/>
<feComposite in2="hardAlpha" operator="out"/>
<feColorMatrix type="matrix" values="0 0 0 0 0 0 0 0 0 1 0 0 0 0 0.22 0 0 0 0.62 0"/>
<feBlend mode="normal" in2="BackgroundImageFix" result="effect1_dropShadow_2_520"/>
<feBlend mode="normal" in="SourceGraphic" in2="effect1_dropShadow_2_520" result="shape"/>
</filter>
</defs>
</svg>
