<svg width="546" height="274" viewBox="0 0 546 274" fill="none" xmlns="http://www.w3.org/2000/svg">
<path d="M0 0H409C484.663 0 546 61.337 546 137C546 212.663 484.663 274 409 274H0V0Z" fill="#2DF8C7" fill-opacity="0.12"/>
<rect x="310.858" y="47.6244" width="152.693" height="152.693" rx="76.3467" fill="#0C2B22" stroke="#1F7165" stroke-width="3.2488"/>
<rect x="270.249" y="75.2486" width="149.445" height="149.445" rx="74.7223" fill="#022920" stroke="#2DF8C7" stroke-width="6.49759"/>
<g filter="url(#filter0_d_148_2)">
<path d="M345.581 169.641L345 169.218L344.419 169.641L321.42 186.387L330.495 159.126L330.723 158.441L330.139 158.016L307.032 141.173H335.289H336.009L336.23 140.488L345 113.225L353.77 140.488L353.991 141.173H354.711H382.968L359.861 158.016L359.277 158.441L359.505 159.126L368.58 186.387L345.581 169.641Z" stroke="#2DF8C7" stroke-width="1.97512" shape-rendering="crispEdges"/>
</g>
<defs>
<filter id="filter0_d_148_2" x="286.224" y="94.199" width="117.552" height="114.552" filterUnits="userSpaceOnUse" color-interpolation-filters="sRGB">
<feFlood flood-opacity="0" result="BackgroundImageFix"/>
<feColorMatrix in="SourceAlpha" type="matrix" values="0 0 0 0 0 0 0 0 0 0 0 0 0 0 0 0 0 0 127 0" result="hardAlpha"/>
<feOffset dy="1.97512"/>
<feGaussianBlur stdDeviation="8.88804"/>
<feComposite in2="hardAlpha" operator="out"/>
<feColorMatrix type="matrix" values="0 0 0 0 0 0 0 0 0 1 0 0 0 0 0.22 0 0 0 0.62 0"/>
<feBlend mode="normal" in2="BackgroundImageFix" result="effect1_dropShadow_148_2"/>
<feBlend mode="normal" in="SourceGraphic" in2="effect1_dropShadow_148_2" result="shape"/>
</filter>
</defs>
</svg>
