<svg width="547" height="711" viewBox="0 0 547 711" fill="none" xmlns="http://www.w3.org/2000/svg">
<path d="M-65.3858 245.365C-70.4566 246.761 20.4217 309.419 22.0304 317.524C22.8747 322.041 -116.125 371.242 -113.328 377.514C-111.27 382.168 24.4518 322.218 27.452 327.776C29.9948 332.484 -95.3816 411.899 -92.1518 417.053C-89.2989 421.735 38.5807 346.286 41.8916 351.264C45.0008 355.851 -73.7265 444.981 -70.3344 449.785C-67.0903 454.264 55.9308 371.206 59.4577 375.902C62.8231 380.395 -51.1652 475.462 -47.5707 480.104C-44.0704 484.49 75.0878 395.9 78.8171 400.434C82.385 404.765 -27.6989 504.448 -23.902 508.928C-19.553 513.962 96.603 421.472 100.966 426.384C105.382 431.364 0.186365 536.202 4.63005 540.939C9.2353 545.879 121.285 448.382 125.742 452.998C130.483 457.83 30.108 567.325 34.7003 571.833C39.5754 576.557 146.589 473.582 151.316 477.982C156.38 482.666 62.4439 597.736 67.2658 601.84C72.5321 606.362 172.058 496.219 176.974 500.027C182.618 504.469 100.092 627.883 105.117 631.273C111.394 635.54 191.927 511.288 196.993 513.76C205.199 517.814 198.126 657.438 202.428 656.324C207.498 654.927 116.62 592.269 115.011 584.165C114.167 579.647 253.167 530.447 250.37 524.175C248.312 519.521 112.59 579.47 109.59 573.912C107.047 569.204 232.423 489.789 229.194 484.635C226.341 479.954 98.4611 555.403 95.1502 550.424C92.041 545.837 210.768 456.707 207.376 451.904C204.132 447.424 81.111 530.482 77.584 525.787C74.2186 521.293 188.207 426.226 184.613 421.584C181.112 417.199 61.9541 505.789 58.2247 501.255C54.6569 496.923 164.741 397.241 160.944 392.76C156.595 387.727 40.4388 480.217 36.0762 475.304C31.6598 470.325 136.855 365.486 132.412 360.749C127.806 355.81 15.7569 453.306 11.2996 448.69C6.55937 443.858 106.934 334.364 102.342 329.855C97.4664 325.131 -9.5473 428.107 -14.2745 423.706C-19.3384 419.023 74.598 303.953 69.7761 299.849C64.5098 295.326 -35.0161 405.469 -39.9327 401.662C-45.5766 397.22 36.9501 273.805 31.9251 270.416C25.6474 266.148 -54.8848 390.401 -59.9512 387.928C-68.1033 383.942 -61.0838 244.25 -65.3858 245.365Z" stroke="#05040E" stroke-width="19" stroke-miterlimit="10"/>
<path d="M-62.7819 242.953C-67.8663 244.471 22.9042 306.994 24.3241 315.139C25.1548 319.777 -112.008 366.297 -109.346 372.677C-107.302 377.452 26.6243 319.819 29.557 325.431C32.0998 330.139 -91.5757 407.534 -88.3594 412.809C-85.5065 417.491 40.6584 344.183 43.9558 349.283C46.9974 353.925 -69.9212 441.169 -66.4753 446.04C-63.2448 450.641 57.9676 369.468 61.5485 374.231C64.9139 378.724 -47.2794 472.027 -43.5636 476.683C-40.0769 481.19 77.2725 394.485 81.0019 399.019C84.6236 403.418 -23.5438 501.35 -19.747 505.831C-15.4116 510.985 98.8955 420.192 103.258 425.105C107.728 430.152 4.39527 533.172 8.89281 537.977C13.4981 542.916 123.631 447.17 128.142 451.854C132.883 456.686 34.5324 564.565 39.2459 569.086C44.1749 573.878 149.164 472.518 153.892 476.919C158.956 481.602 67.1646 595.071 71.9865 599.174C77.3067 603.764 174.701 495.102 179.671 498.977C185.315 503.419 105.23 625.326 110.255 628.716C116.533 632.983 194.569 510.17 199.757 512.657C207.977 516.589 203.387 653.789 207.77 652.5C212.854 650.982 122.084 588.459 120.664 580.314C119.833 575.675 256.996 529.155 254.334 522.776C252.29 518.001 118.364 575.633 115.431 570.022C112.888 565.314 236.564 487.918 233.347 482.643C230.494 477.962 104.33 551.269 101.032 546.169C97.9905 541.528 214.909 454.284 211.463 449.413C208.233 444.812 87.0202 525.985 83.4394 521.222C80.074 516.728 192.267 423.425 188.552 418.77C185.065 414.263 67.7154 500.968 63.986 496.434C60.3643 492.034 168.532 394.102 164.735 389.622C160.4 384.467 46.0924 475.26 41.7298 470.348C37.2595 465.301 140.593 362.281 136.095 357.476C131.49 352.537 21.3565 448.282 16.8454 443.599C12.1052 438.767 110.456 330.888 105.742 326.366C100.813 321.575 -4.17649 422.935 -8.90368 418.534C-13.9676 413.85 77.8233 300.382 73.0014 296.278C67.6812 291.688 -29.7127 400.351 -34.6832 396.476C-40.3271 392.034 39.7576 270.126 34.7327 266.737C28.4549 262.47 -49.5815 385.283 -54.7693 382.796C-62.9888 378.864 -58.4664 241.718 -62.7819 242.953Z" stroke="#060912" stroke-width="19" stroke-miterlimit="10"/>
<path d="M-60.0553 240.556C-65.1533 242.195 25.2668 304.556 26.5654 312.687C27.3286 317.38 -107.89 361.354 -105.228 367.734C-103.251 372.562 28.8655 317.368 31.8521 323.047C34.3813 327.877 -87.4582 403.144 -84.3094 408.472C-81.4701 413.275 42.9263 342.042 46.2237 347.142C49.3192 351.851 -65.8446 437.142 -62.3449 442.08C-59.1144 446.681 60.3296 367.583 63.9105 372.346C67.3297 376.907 -43.001 468.392 -39.3527 473.101C-35.8659 477.608 79.6747 392.789 83.458 397.39C87.0796 401.79 -19.1713 497.971 -15.3206 502.519C-10.9853 507.674 101.459 418.699 105.876 423.678C110.346 428.726 8.98313 530.063 13.4807 534.867C18.0859 539.807 126.303 445.812 130.868 450.562C135.662 455.462 39.3493 561.604 44.0629 566.126C48.9918 570.917 152.065 471.308 156.792 475.708C161.924 480.338 72.278 592.204 77.1537 596.376C82.5414 600.912 177.844 493.919 182.814 497.794C188.526 502.182 110.708 622.501 115.854 625.904C122.199 630.118 197.726 508.866 202.981 511.298C211.215 515.11 209 649.75 213.451 648.407C218.549 646.768 128.129 584.407 126.83 576.276C126.067 571.584 261.286 527.61 258.623 521.23C256.647 516.401 124.53 571.595 121.543 565.916C119.014 561.087 240.854 485.82 237.705 480.491C234.866 475.688 110.469 546.921 107.172 541.821C104.076 537.113 219.24 451.821 215.74 446.883C212.51 442.282 93.0659 521.381 89.4851 516.617C86.0658 512.057 196.396 420.571 192.681 415.916C189.194 411.409 73.6533 496.228 69.8701 491.627C66.2484 487.228 172.499 391.046 168.649 386.498C164.313 381.343 51.8688 470.319 47.4523 465.339C42.982 460.292 144.345 358.955 139.847 354.15C135.242 349.21 27.0252 443.206 22.4602 438.455C17.6662 433.556 113.979 327.413 109.265 322.892C104.336 318.1 1.26306 417.709 -3.46412 413.309C-8.59551 408.679 81.05 296.813 76.1743 292.642C70.7866 288.106 -24.5157 395.098 -29.4862 391.223C-35.1976 386.835 42.6203 266.516 37.4741 263.113C31.1288 258.9 -44.3982 380.151 -49.6534 377.719C-57.8729 373.786 -55.6723 239.267 -60.0553 240.556Z" stroke="#070F16" stroke-width="19" stroke-miterlimit="10"/>
<path d="M-57.2742 238.226C-62.4396 239.919 27.6302 302.118 28.7536 310.168C29.4493 314.915 -103.771 356.41 -101.177 362.844C-99.2137 367.794 30.9324 314.835 33.9054 320.636C36.4346 325.465 -83.5826 398.726 -80.38 404.122C-77.5408 408.925 44.9524 339.873 48.3035 345.041C51.3991 349.749 -61.8346 433.169 -58.3485 438.229C-55.0642 442.897 62.5036 365.738 66.0708 370.622C69.544 375.251 -38.8568 464.864 -35.1546 469.641C-31.614 474.215 81.9967 391.268 85.8338 395.937C89.5093 400.403 -14.7579 494.78 -10.9072 499.328C-6.57179 504.483 103.943 417.38 108.359 422.36C112.883 427.474 13.5044 527.007 18.0558 531.879C22.7148 536.886 128.894 444.628 133.526 449.325C138.32 454.224 44.0456 558.629 48.813 563.219C53.742 568.01 154.777 470.138 159.572 474.484C164.757 479.182 77.2171 589.257 82.0928 593.428C87.4805 597.964 180.691 492.641 185.729 496.462C191.494 500.918 116.078 619.541 121.171 622.876C127.583 627.036 200.655 507.413 205.856 509.778C214.157 513.535 214.143 645.536 218.607 644.072C223.773 642.379 133.703 580.18 132.579 572.13C131.884 567.384 265.104 525.888 262.51 519.454C260.547 514.504 130.401 567.463 127.428 561.662C124.898 556.833 244.916 483.573 241.713 478.176C238.874 473.373 116.381 542.425 113.029 537.257C109.934 532.549 223.168 449.129 219.682 444.069C216.397 439.401 98.8294 516.56 95.2622 511.676C91.7891 507.047 200.19 417.434 196.488 412.657C192.947 408.083 79.3364 491.031 75.4993 486.361C71.8238 481.895 176.091 387.518 172.24 382.97C167.905 377.815 57.3903 464.918 52.9738 459.939C48.4497 454.824 147.829 355.291 143.277 350.419C138.618 345.412 32.439 437.67 27.8066 432.973C23.0125 428.074 117.287 323.669 112.52 319.08C107.591 314.288 6.55558 412.161 1.76092 407.814C-3.42431 403.116 84.116 293.041 79.2402 288.87C73.8526 284.334 -19.3582 389.657 -24.3962 385.836C-30.1614 381.381 45.2549 262.758 40.1625 259.422C33.7498 255.262 -39.3217 374.885 -44.5231 372.52C-52.7562 368.709 -52.7425 236.708 -57.2742 238.226Z" stroke="#08141A" stroke-width="19" stroke-miterlimit="10"/>
<path d="M-54.3059 235.859C-59.485 237.673 30.0056 299.561 30.9402 307.652C31.5684 312.452 -99.5328 351.483 -97.0191 358.092C-95.1238 363.095 33.1053 312.44 36.1322 318.308C38.6477 323.259 -79.4796 394.458 -76.277 399.855C-73.3839 404.725 47.1656 337.667 50.5031 342.956C53.585 347.786 -57.7051 429.212 -54.219 434.272C-50.9483 439.062 64.6896 363.774 68.3106 368.726C71.7163 373.408 -34.7006 461.217 -30.9984 465.994C-27.4579 470.568 84.3305 389.627 88.1002 394.35C91.8295 398.884 -10.5212 491.511 -6.61662 496.126C-2.22741 501.349 106.303 416.05 110.72 421.029C115.244 426.144 17.9025 523.94 22.4539 528.812C27.113 533.819 131.362 443.433 135.995 448.13C140.789 453.029 48.6054 555.765 53.3189 560.287C58.3018 565.146 157.299 469.01 162.162 473.303C167.347 478 82.0195 586.42 86.9627 590.537C92.4042 595.141 183.47 491.419 188.561 495.308C194.394 499.709 121.258 616.623 126.472 619.972C132.952 624.078 203.622 506.151 208.891 508.462C217.205 512.098 219.324 641.513 223.802 639.927C228.981 638.113 139.491 576.225 138.556 568.135C137.928 563.334 269.029 524.303 266.515 517.694C264.62 512.691 136.391 563.346 133.364 557.478C130.848 552.527 248.976 481.328 245.773 475.931C242.88 471.061 122.331 538.119 118.993 532.831C115.911 528.001 227.201 446.574 223.715 441.514C220.444 436.725 104.807 512.012 101.186 507.06C97.7799 502.378 204.197 414.569 200.495 409.792C196.954 405.218 85.1657 486.159 81.396 481.436C77.6667 476.902 180.017 384.275 176.113 379.66C171.724 374.437 63.193 459.736 58.7765 454.757C54.2524 449.642 151.594 351.846 147.042 346.974C142.383 341.967 38.1341 432.353 33.5016 427.657C28.7075 422.757 120.891 320.021 116.177 315.499C111.194 310.64 12.1967 406.776 7.33457 402.483C2.14934 397.786 87.4768 289.366 82.5336 285.249C77.0921 280.645 -13.9734 384.367 -19.0651 380.478C-24.8978 376.077 48.238 259.163 43.0243 255.814C36.5442 251.708 -34.1257 369.635 -39.3945 367.324C-47.6951 363.567 -49.7606 234.219 -54.3059 235.859Z" stroke="#091A1E" stroke-width="19" stroke-miterlimit="10"/>
<path d="M-51.2697 233.435C-56.4624 235.37 32.2736 296.867 33.0869 304.943C33.6477 309.797 -95.2939 346.552 -92.8477 353.215C-90.9524 358.219 35.2249 309.974 38.1304 315.829C40.5784 320.833 -75.5379 389.986 -72.3489 395.504C-69.5233 400.428 49.1229 335.552 52.5279 340.786C55.6098 345.616 -53.6964 425.239 -50.1565 430.366C-46.8858 435.156 66.8623 361.929 70.4833 366.881C73.9428 371.63 -30.544 457.567 -26.788 462.412C-23.1936 467.053 86.5974 388.038 90.367 392.761C94.0289 397.349 -6.14923 488.131 -2.24468 492.746C2.14453 497.969 108.745 414.542 113.215 419.589C117.74 424.704 22.4361 520.763 26.9875 525.635C31.7004 530.709 133.912 442.059 138.598 446.824C143.446 451.791 53.3141 552.668 58.0815 557.258C63.1318 562.063 160.078 467.785 164.994 472.146C170.233 476.911 87.011 583.539 91.9542 587.657C97.4632 592.207 186.356 490.33 191.515 494.164C197.348 498.566 126.614 613.783 131.895 617.079C138.496 621.198 206.643 504.953 211.98 507.211C220.307 510.726 224.385 637.473 228.943 635.712C234.136 633.777 145.4 572.28 144.587 564.204C144.026 559.35 272.968 522.595 270.521 515.932C268.626 510.928 142.449 559.173 139.543 553.318C137.095 548.314 253.212 479.161 250.023 473.643C247.197 468.719 128.551 533.595 125.146 528.361C122.064 523.531 231.37 443.908 227.83 438.781C224.56 433.991 110.811 507.218 107.19 502.266C103.731 497.517 208.218 411.58 204.462 406.735C200.867 402.094 91.0765 481.109 87.3069 476.386C83.645 471.798 183.823 381.016 179.918 376.401C175.529 371.178 68.9286 454.605 64.4583 449.558C59.9342 444.443 155.238 348.384 150.686 343.512C145.973 338.438 43.7619 427.088 39.0756 422.323C34.2277 417.356 124.36 316.479 119.592 311.889C114.542 307.084 17.5956 401.362 12.6796 397.001C7.44053 392.236 90.6627 285.608 85.7195 281.49C80.2106 276.94 -8.68215 378.817 -13.8414 374.983C-19.6741 370.581 51.0601 255.364 45.7789 252.068C39.1774 247.949 -28.9694 364.194 -34.3057 361.936C-42.6335 358.422 -46.657 231.741 -51.2697 233.435Z" stroke="#091F23" stroke-width="19" stroke-miterlimit="10"/>
<path d="M-48.1128 231.025C-53.3191 233.082 34.5409 294.173 35.2329 302.236C35.6587 307.198 -91.0019 341.69 -88.5018 348.42C-86.6201 353.546 37.4785 307.402 40.3704 313.378C42.8723 318.45 -71.3003 385.609 -68.125 391.248C-65.2455 396.24 51.3895 333.411 54.7809 338.767C57.9167 343.664 -49.5134 421.347 -45.9196 426.542C-42.595 431.399 69.0881 360.152 72.763 365.171C76.2225 369.92 -26.213 453.999 -22.4032 458.911C-18.7549 463.62 88.9847 386.464 92.862 391.321C96.5778 395.977 -1.67029 484.887 2.34196 489.637C6.78503 494.927 111.334 413.358 115.805 418.405C120.383 423.588 27.1304 517.788 31.6818 522.66C36.3948 527.735 136.676 440.957 141.362 445.721C146.21 450.688 58.1836 549.775 63.0724 554.378C68.1765 559.251 163.085 466.71 168.001 471.07C173.308 475.782 92.1906 580.62 97.1877 584.805C102.697 589.354 189.552 489.214 194.711 493.049C200.611 497.397 132.103 610.837 137.452 614.079C144.054 618.198 209.853 503.717 215.256 505.92C223.652 509.381 229.512 633.38 234.138 631.566C239.344 629.509 151.484 568.418 150.792 560.355C150.366 555.393 277.027 520.901 274.527 514.171C272.645 509.045 148.547 555.189 145.655 549.213C143.153 544.141 257.325 476.982 254.15 471.343C251.271 466.351 134.636 529.18 131.244 523.824C128.108 518.927 235.538 441.244 231.945 436.049C228.62 431.192 116.937 502.439 113.262 497.42C109.803 492.67 212.238 408.591 208.428 403.68C204.78 398.97 97.0404 476.127 93.163 471.269C89.4473 466.614 187.695 377.704 183.683 372.954C179.24 367.664 74.6907 449.233 70.2204 444.185C65.6424 439.003 158.895 344.802 154.343 339.93C149.63 334.856 49.3488 421.634 44.6625 416.869C39.8146 411.903 127.841 312.815 122.953 308.213C117.849 303.34 22.9399 395.881 18.0239 391.52C12.7173 386.809 93.8344 281.971 88.8373 277.786C83.3283 273.236 -3.52672 373.376 -8.68596 369.542C-14.5861 365.194 53.9216 251.754 48.5729 248.512C41.9714 244.393 -23.8276 358.874 -29.2313 356.67C-37.6266 353.21 -43.4865 229.21 -48.1128 231.025Z" stroke="#0A2527" stroke-width="19" stroke-miterlimit="10"/>
<path d="M-44.834 228.629C-50.1078 230.74 36.7551 291.412 37.3932 299.407C37.7516 304.423 -86.5203 336.788 -84.1552 343.626C-82.341 348.805 39.6654 304.883 42.5437 310.981C44.9782 316.106 -67.1295 381.286 -63.9003 386.993C-61.0883 392.038 53.5356 331.256 56.9809 336.68C60.103 341.699 -45.2083 417.47 -41.6819 422.718C-38.3574 427.575 71.3146 358.375 75.0434 363.462C78.5567 368.279 -21.8274 450.499 -18.085 455.465C-14.4368 460.174 91.2917 385.064 95.2365 389.868C99.0061 394.591 2.80933 481.643 6.82159 486.393C11.2647 491.683 113.817 412.04 118.287 417.087C122.865 422.269 31.6639 514.612 36.2692 519.552C40.9821 524.626 139.266 439.774 143.952 444.538C148.922 449.519 62.9462 546.748 67.7674 551.404C72.8716 556.277 165.729 465.595 170.699 470.022C176.005 474.733 97.1148 577.794 102.179 581.925C107.81 586.489 192.492 488.193 197.651 492.028C203.673 496.389 137.405 607.931 142.808 611.24C149.477 615.306 212.914 502.709 218.385 504.859C226.794 508.199 234.316 629.436 239.077 627.513C244.351 625.403 157.488 564.731 156.85 556.735C156.491 551.72 280.763 519.355 278.398 512.517C276.584 507.338 154.577 551.259 151.699 545.162C149.265 540.036 261.372 474.856 258.143 469.15C255.331 464.104 140.707 524.887 137.262 519.463C134.14 514.444 239.451 438.673 235.925 433.425C232.6 428.568 122.928 497.768 119.199 492.681C115.686 487.864 216.07 405.643 212.328 400.678C208.68 395.968 102.951 471.078 99.0063 466.274C95.2367 461.551 191.433 374.499 187.421 369.749C182.978 364.459 80.4264 444.103 75.9561 439.056C71.378 433.873 162.579 341.531 157.974 336.591C153.261 331.517 54.9768 416.369 50.2905 411.605C45.3213 406.624 131.297 309.395 126.475 304.738C121.371 299.866 28.514 390.548 23.5441 386.121C18.2376 381.409 97.1281 278.348 92.0635 274.217C86.4333 269.654 1.75089 367.949 -3.40836 364.115C-9.42985 359.753 56.8378 248.212 51.4352 244.902C44.7663 240.837 -18.6713 353.434 -24.1425 351.284C-32.6189 347.998 -40.1402 226.761 -44.834 228.629Z" stroke="#0B2A2B" stroke-width="19" stroke-miterlimit="10"/>
<path d="M-41.5552 226.232C-46.8426 228.464 38.9154 288.582 39.3647 296.617C39.6556 301.687 -82.295 331.978 -79.8761 338.884C-78.1293 344.116 41.6636 302.404 44.5419 308.501C47.0302 313.694 -63.0126 376.894 -59.8508 382.655C-56.9849 387.768 55.5065 329.019 58.8843 334.496C62.0065 339.515 -41.2534 413.428 -37.6733 418.744C-34.3623 423.722 73.3122 356.448 77.0273 361.656C80.527 366.594 -17.7383 446.903 -13.9421 451.936C-10.3074 456.766 93.4236 383.582 97.4222 388.454C101.192 393.177 7.15411 478.505 11.1664 483.255C15.6094 488.545 116.096 410.881 120.62 415.996C125.252 421.246 36.1702 511.676 40.8293 516.683C45.5961 521.825 141.707 438.818 146.515 443.596C151.484 448.576 67.6815 543.961 72.5028 548.617C77.6069 553.49 168.413 464.666 173.437 469.161C178.797 473.939 102.025 575.088 107.211 579.233C112.841 583.796 195.405 487.413 200.632 491.194C206.653 495.555 142.747 605.212 148.163 608.4C154.9 612.412 216.03 501.767 221.568 503.863C230.058 507.028 239.173 625.557 243.948 623.513C249.236 621.281 163.478 561.163 163.028 553.128C162.738 548.058 284.688 517.767 282.269 510.861C280.523 505.628 160.73 547.341 157.851 541.244C155.363 536.051 265.406 472.85 262.244 467.09C259.378 461.977 146.887 520.726 143.509 515.249C140.387 510.23 243.647 436.317 240.066 431.001C236.756 426.023 129.081 493.297 125.366 488.089C121.866 483.151 220.132 402.842 216.335 397.809C212.701 392.978 108.97 466.163 104.971 461.291C101.201 456.568 195.239 371.239 191.227 366.489C186.784 361.199 86.2968 438.863 81.7727 433.749C77.1408 428.499 166.223 338.068 161.564 333.061C156.797 327.919 60.6858 410.927 55.8781 406.149C50.9089 401.169 134.712 305.784 129.89 301.128C124.786 296.255 33.9803 385.079 28.9566 380.584C23.5962 375.805 100.368 274.656 95.1821 270.512C89.5518 265.948 6.98826 362.332 1.76155 358.551C-4.25994 354.19 59.6461 244.533 54.23 241.345C47.4936 237.333 -13.6364 347.977 -19.1751 345.881C-27.6651 342.717 -36.7803 224.188 -41.5552 226.232Z" stroke="#0C2F2F" stroke-width="19" stroke-miterlimit="10"/>
<path d="M-38.1546 223.851C-43.4556 226.204 41.0223 285.687 41.4042 293.777C41.6276 298.9 -77.8266 327.199 -75.5426 334.212C-73.742 339.512 43.6622 299.927 46.5944 306.091C49.0152 311.338 -58.7874 372.641 -55.6393 378.522C-52.8409 383.689 57.5181 326.974 60.9498 332.518C64.0583 337.659 -37.0154 409.605 -33.4352 414.921C-30.0704 419.967 75.4717 354.726 79.1869 359.934C82.6866 364.872 -13.4061 443.337 -9.60985 448.37C-5.92133 453.268 95.6909 381.996 99.6759 386.988C103.499 391.779 11.5805 475.196 15.6466 480.013C20.1435 485.371 118.512 409.619 123.036 414.733C127.668 419.983 40.7581 508.569 45.4172 513.576C50.184 518.718 144.298 437.636 149.038 442.468C154.007 447.448 72.377 540.988 77.2658 545.591C82.4238 550.531 171.111 463.619 176.202 468.06C181.63 472.785 107.031 572.089 112.217 576.234C117.901 580.865 198.359 486.272 203.64 490.12C209.729 494.428 148.13 602.133 153.6 605.388C160.404 609.346 219.213 500.775 224.765 502.75C233.269 505.793 243.924 621.547 248.645 619.435C253.946 617.082 169.468 557.599 169.086 549.51C168.863 544.386 288.317 516.087 286.033 509.074C284.233 503.774 166.828 543.359 163.896 537.195C161.475 531.948 269.278 470.645 266.13 464.764C263.332 459.597 152.973 516.313 149.541 510.768C146.432 505.628 247.506 433.681 243.926 428.365C240.561 423.319 135.019 488.56 131.304 483.352C127.804 478.414 223.897 399.949 220.101 394.916C216.412 390.018 114.8 461.29 110.815 456.298C106.991 451.507 198.91 368.091 194.844 363.273C190.347 357.916 91.9791 433.667 87.455 428.553C82.8231 423.303 169.733 334.717 165.073 329.71C160.307 324.568 66.1928 405.65 61.4527 400.818C56.4834 395.838 138.114 302.298 133.225 297.695C128.067 292.755 39.3797 379.667 34.2885 375.226C28.8606 370.501 103.46 271.197 98.2738 267.052C92.5897 262.421 12.1313 357.014 6.85076 353.166C0.761796 348.858 62.3603 241.153 56.8904 237.898C50.0865 233.94 -8.72228 342.511 -14.2746 340.536C-22.7108 337.44 -33.3122 221.753 -38.1546 223.851Z" stroke="#0D3533" stroke-width="19" stroke-miterlimit="10"/>
<path d="M-34.6884 221.413C-40.0569 223.82 43.1409 282.668 43.4015 290.744C43.5574 295.921 -73.3602 322.416 -71.1436 329.483C-69.4105 334.837 45.74 297.272 48.5372 303.544C50.9444 308.912 -54.672 368.249 -51.5238 374.13C-48.6716 379.364 59.555 324.682 62.9192 330.281C66.0277 335.421 -32.8733 405.524 -29.3067 410.961C-25.9419 416.007 77.4678 352.799 81.2368 358.074C84.7904 363.08 -9.25108 439.686 -5.40101 444.787C-1.71248 449.685 97.8348 380.392 101.874 385.452C105.751 390.31 15.9509 471.815 20.0708 476.7C24.5677 482.057 120.871 408.285 125.395 413.4C130.081 418.717 45.2901 505.391 49.9492 510.398C54.8373 515.553 146.765 436.437 151.559 441.337C156.582 446.385 77.0706 538.012 81.9594 542.615C87.1849 547.501 173.74 462.623 178.831 467.064C184.259 471.789 111.846 569.127 117.086 573.339C122.837 577.916 201.163 485.357 206.511 489.151C212.654 493.526 153.309 599.211 158.793 602.345C165.664 606.249 222.219 499.698 227.893 501.687C236.464 504.676 248.43 617.506 253.286 615.286C258.655 612.879 175.457 554.032 175.196 545.956C175.04 540.779 291.958 514.283 289.741 507.216C288.008 501.862 172.858 539.428 170.061 533.156C167.653 527.787 273.27 468.451 270.122 462.569C267.269 457.335 159.043 512.017 155.679 506.418C152.57 501.278 251.471 431.176 247.904 425.739C244.54 420.693 141.13 483.901 137.361 478.625C133.807 473.619 227.849 397.013 223.999 391.913C220.31 387.015 120.763 456.307 116.724 451.247C112.847 446.389 202.647 364.885 198.527 360C194.03 354.642 97.7269 428.414 93.2027 423.3C88.517 417.983 173.308 331.309 168.648 326.302C163.76 321.146 71.8329 400.262 67.0389 395.363C62.0158 390.315 141.527 298.687 136.638 294.084C131.413 289.198 44.8581 374.077 39.767 369.636C34.3391 364.911 106.752 267.572 101.512 263.36C95.7606 258.783 17.4346 351.343 12.0866 347.548C5.9438 343.173 65.2886 237.488 59.805 234.354C52.9336 230.45 -3.62141 337.001 -9.29504 335.013C-17.7448 332.037 -29.7111 219.208 -34.6884 221.413Z" stroke="#0E3A37" stroke-width="19" stroke-miterlimit="10"/>
<path d="M-31.098 218.992C-36.4801 221.52 45.2625 279.652 45.4018 287.714C45.4902 292.945 -68.8908 317.637 -66.6742 324.704C-65.0086 330.112 47.6994 294.606 50.5505 300.946C52.9577 306.314 -50.4322 363.873 -47.2302 369.822C-44.3915 375.178 61.5275 322.448 64.9455 328.114C68.1079 333.322 -28.6743 401.512 -25.0539 407.017C-21.7027 412.184 79.5881 350.888 83.2897 356.218C86.8432 361.223 -4.95801 435.931 -1.05408 441.099C2.68829 446.065 100.103 378.805 104.088 383.798C107.965 388.656 20.4054 468.262 24.5118 473.269C29.0625 478.693 123.126 406.819 127.704 412.002C132.389 417.319 49.7174 502.081 54.4979 507.101C59.386 512.257 149.181 435.174 154.043 440.02C159.066 445.068 81.7406 534.729 86.6832 539.4C91.9625 544.354 176.398 461.387 181.49 465.828C186.971 470.62 116.812 565.939 121.998 570.084C127.75 574.661 203.943 484.135 209.359 487.875C215.569 492.196 158.478 595.862 164.029 598.942C170.954 602.913 225.31 498.449 230.997 500.316C239.581 503.184 252.791 613.144 257.715 610.871C263.097 608.342 181.354 550.211 181.215 542.148C181.127 536.917 295.508 512.226 293.291 505.159C291.625 499.751 178.917 535.257 176.066 528.917C173.659 523.549 277.049 465.989 273.847 460.04C271.008 454.685 165.089 507.415 161.671 501.748C158.509 496.541 255.291 428.35 251.671 422.846C248.32 417.678 147.029 478.974 143.327 473.645C139.774 468.639 231.575 393.932 227.671 388.764C223.929 383.798 126.514 451.057 122.529 446.065C118.651 441.207 206.211 361.6 202.105 356.594C197.554 351.169 103.491 423.043 98.9132 417.861C94.2275 412.544 176.899 327.782 172.119 322.761C167.231 317.606 77.4357 394.688 72.5742 389.843C67.5512 384.795 144.876 295.133 139.934 290.463C134.654 285.509 50.2183 368.476 45.1271 364.035C39.6454 359.242 109.804 263.924 104.619 259.779C98.867 255.202 22.6735 345.728 17.258 341.987C11.0477 337.666 68.1387 234.001 62.5876 230.921C55.6624 226.949 1.3073 331.413 -4.37995 329.546C-12.8434 326.692 -26.1745 216.719 -31.098 218.992Z" stroke="#0F403B" stroke-width="19" stroke-miterlimit="10"/>
<path d="M-27.3864 216.582C-32.7822 219.232 47.3976 276.512 47.4155 284.561C47.4365 289.846 -64.3003 312.868 -62.1512 319.989C-60.4991 325.519 49.7799 291.952 52.6173 298.413C55.0109 303.902 -46.0713 359.509 -42.9368 365.512C-40.0981 370.868 63.621 320.225 66.9715 325.945C70.1203 331.274 -24.3543 397.512 -20.7475 403.138C-17.3964 408.306 81.6946 349.097 85.45 354.494C89.0574 359.567 -0.571162 432.43 3.38662 437.665C7.12899 442.631 102.344 377.459 106.383 382.519C110.314 387.444 24.9266 465.206 29.1004 470.159C33.6512 475.584 125.582 405.743 130.214 410.993C134.899 416.31 54.4676 499.173 59.248 504.194C64.19 509.417 151.799 434.3 156.714 439.213C161.791 444.328 86.5985 531.957 91.6624 536.641C96.9417 541.595 179.299 460.729 184.458 465.116C189.94 469.908 122.034 563.207 127.22 567.352C133.093 571.943 207.154 483.45 212.57 487.191C218.78 491.512 163.956 593.036 169.561 596.184C176.554 600.101 228.695 497.846 234.45 499.659C243.048 502.405 257.502 609.495 262.439 607.1C267.835 604.451 187.655 547.17 187.637 539.122C187.616 533.837 299.353 510.814 297.204 503.693C295.552 498.164 185.273 531.731 182.435 525.27C180.042 519.78 281.124 464.173 277.989 458.17C275.151 452.815 171.432 503.457 168.081 497.737C164.932 492.408 259.407 426.17 255.8 420.544C252.449 415.377 153.358 474.586 149.603 469.189C145.995 464.116 235.624 391.253 231.666 386.017C227.924 381.052 132.709 446.224 128.67 441.163C124.739 436.238 210.126 358.476 205.952 353.524C201.401 348.099 109.471 417.94 104.839 412.69C100.153 407.373 180.585 324.509 175.804 319.489C170.862 314.265 83.2536 389.382 78.3383 384.469C73.2614 379.354 148.454 291.726 143.39 287.042C138.111 282.088 55.7534 362.954 50.5947 358.566C45.113 353.774 113.018 260.475 107.833 256.33C101.96 251.74 27.8985 340.233 22.483 336.492C16.2727 332.171 71.0963 230.647 65.4914 227.499C58.4987 223.581 6.35709 325.837 0.602371 324.024C-7.99597 321.277 -22.4494 214.188 -27.3864 216.582Z" stroke="#10453F" stroke-width="19" stroke-miterlimit="10"/>
<path d="M-23.7312 214.105C-29.1269 216.755 49.4088 273.359 49.3054 281.394C49.2589 286.733 -59.7796 308.155 -57.6442 315.397C-56.0596 320.98 51.723 289.405 54.493 295.92C56.8191 301.464 -41.8478 355.253 -38.6595 361.324C-35.8344 366.801 65.5232 318.043 68.9815 323.898C72.1303 329.227 -20.0504 393.634 -16.4435 399.26C-13.0385 404.495 83.7449 347.238 87.5541 352.703C91.1479 357.897 3.89437 428.754 7.78468 434.043C11.5809 439.076 104.61 375.87 108.635 381.052C112.566 385.977 29.4863 461.787 33.6465 466.86C38.2511 472.353 127.995 404.478 132.627 409.728C137.367 415.112 59.1888 495.956 63.9018 501.03C68.8437 506.254 154.374 433.238 159.236 438.083C164.312 443.198 91.4274 528.875 96.4374 533.491C101.717 538.445 181.942 459.612 187.154 464.067C192.757 468.873 126.931 560.071 132.238 564.23C138.111 568.82 210.093 482.428 215.509 486.169C221.84 490.504 169.23 589.819 174.902 592.913C181.963 596.777 232.012 496.744 237.767 498.557C246.379 501.182 261.833 605.374 266.905 602.872C272.301 600.222 193.765 543.618 193.869 535.582C193.915 530.244 302.954 508.822 300.818 501.58C299.234 495.997 191.451 527.572 188.681 521.057C186.355 515.513 285.022 461.723 281.833 455.653C279.008 450.176 177.651 498.934 174.192 493.079C171.044 487.75 263.224 423.343 259.617 417.717C256.212 412.482 159.429 469.739 155.62 464.274C152.026 459.08 239.28 388.223 235.389 382.933C231.593 377.9 138.564 441.107 134.539 435.925C130.608 431 213.688 355.19 209.528 350.117C204.923 344.624 115.179 412.499 110.547 407.249C105.807 401.865 183.985 321.021 179.272 315.946C174.33 310.723 88.7999 383.739 83.9384 378.894C78.8615 373.778 151.747 288.102 146.736 283.486C141.457 278.532 61.2322 357.365 56.0197 352.91C50.4167 348.104 116.243 256.906 110.936 252.747C105.063 248.157 33.0808 334.549 27.6653 330.808C21.3337 326.473 73.9438 227.158 68.2714 224.064C61.2113 220.2 11.1619 320.233 5.40715 318.42C-3.20482 315.795 -18.7266 211.657 -23.7312 214.105Z" stroke="#114A43" stroke-width="19" stroke-miterlimit="10"/>
<path d="M-19.9674 211.764C-25.3768 214.535 51.4208 270.207 51.1961 278.229C51.0821 283.621 -55.2044 303.509 -53.1364 310.805C-51.5518 316.388 53.6132 286.792 56.4369 293.375C58.8169 298.986 -37.4886 350.891 -34.3139 357.082C-31.4888 362.559 67.4802 315.929 70.9384 321.784C74.0736 327.234 -15.7456 389.756 -12.085 395.45C-8.69358 400.806 85.8361 345.569 89.6453 351.034C93.2391 356.228 8.27955 425.254 12.2237 430.611C16.0063 435.765 106.727 374.511 110.874 379.706C114.859 384.699 34.0194 458.61 38.2471 463.63C42.8517 469.123 130.396 403.335 135.028 408.585C139.768 413.969 63.7758 492.847 68.6101 497.935C73.5521 503.158 156.95 432.176 161.865 437.089C166.996 442.271 96.3109 525.86 101.375 530.544C106.708 535.566 184.8 458.766 190.013 463.221C195.616 468.027 132.043 557.206 137.418 561.31C143.291 565.901 213.195 481.61 218.731 485.364C225.131 489.645 174.666 586.806 180.406 589.846C187.534 593.656 235.477 495.966 241.246 497.658C249.871 500.162 266.394 601.402 271.412 598.833C276.822 596.061 200.024 540.389 200.249 532.368C200.363 526.975 306.649 507.088 304.581 499.792C302.997 494.208 197.832 523.804 195.008 517.222C192.628 511.611 288.933 459.706 285.759 453.514C282.934 448.037 183.965 494.668 180.506 488.813C177.371 483.362 267.19 420.84 263.53 415.147C260.138 409.791 165.609 465.027 161.8 459.563C158.206 454.368 243.165 385.342 239.221 379.986C235.439 374.831 144.717 436.085 140.571 430.89C136.586 425.897 217.425 351.986 213.198 346.966C208.593 341.474 121.049 407.261 116.417 402.012C111.677 396.627 187.669 317.749 182.835 312.661C177.893 307.438 94.4949 378.421 89.5796 373.508C84.4488 368.325 155.134 284.736 150.07 280.052C144.737 275.031 66.6444 351.83 61.4319 347.375C55.8288 342.569 119.402 253.391 114.027 249.286C108.154 244.696 38.2502 328.987 32.7134 325.233C26.3143 320.952 76.7785 223.791 71.0386 220.751C63.911 216.941 15.9674 314.63 10.199 312.939C1.58705 310.314 -14.8818 209.141 -19.9674 211.764Z" stroke="#115048" stroke-width="19" stroke-miterlimit="10"/>
<path d="M-16.1894 209.301C-21.6662 212.126 53.3932 266.866 53.101 274.942C52.9196 280.388 -50.561 298.809 -48.628 306.213C-47.057 311.918 55.45 284.112 58.2063 290.748C60.5188 296.413 -33.25 346.514 -30.1427 352.76C-27.3313 358.358 69.2761 313.612 72.6669 319.521C75.8021 324.972 -11.6018 385.677 -8.00858 391.424C-4.61717 396.78 87.5913 343.617 91.4543 349.149C95.102 354.411 12.4501 421.484 16.4481 426.909C20.2307 432.063 108.752 372.896 112.831 378.145C116.802 383.259 38.3378 455.164 42.6193 460.252C47.224 465.744 132.515 401.976 137.2 407.294C141.994 412.746 68.3232 489.55 73.09 494.692C78.0858 499.982 159.23 431.02 164.199 436C169.397 441.129 100.899 522.752 105.962 527.436C111.363 532.403 187.31 457.759 192.576 462.281C198.179 467.087 136.873 554.124 142.302 558.296C148.296 562.9 215.987 480.818 221.591 484.518C227.99 488.799 179.807 583.698 185.547 586.738C192.742 590.494 238.58 495.148 244.469 496.853C253.162 499.303 270.457 597.497 275.61 594.82C281.087 591.995 206.027 537.255 206.32 529.18C206.501 523.734 309.982 505.312 308.049 497.909C306.478 492.204 203.971 520.01 201.214 513.374C198.902 507.709 292.671 457.608 289.563 451.362C286.752 445.764 190.144 490.509 186.754 484.6C183.618 479.15 271.022 418.445 267.429 412.698C264.038 407.342 171.829 460.505 167.966 454.973C164.319 449.711 246.97 382.637 242.972 377.213C239.19 372.059 150.669 431.226 146.59 425.977C142.618 420.862 221.083 348.958 216.801 343.87C212.197 338.378 126.906 402.145 122.22 396.828C117.427 391.376 191.097 314.572 186.33 309.43C181.335 304.139 100.191 373.102 95.2214 368.122C90.0231 362.993 158.522 281.37 153.458 276.686C148.057 271.719 72.111 346.363 66.8446 341.841C61.2416 337.035 122.547 249.998 117.119 245.826C111.124 241.221 43.434 323.304 37.8297 319.604C31.4306 315.323 79.6138 220.424 73.8739 217.384C66.6788 213.628 20.8411 308.974 14.9514 307.269C6.37967 304.832 -11.0363 206.624 -16.1894 209.301Z" stroke="#12554C" stroke-width="19" stroke-miterlimit="10"/>
<path d="M-12.2904 206.85C-17.7809 209.797 55.3653 263.523 54.9517 271.585C54.7029 277.085 -45.9181 294.107 -43.9986 301.632C-42.4951 307.391 57.4078 281.443 60.0966 288.133C62.4092 293.798 -28.8367 342.217 -25.743 348.583C-22.9316 354.182 71.1795 311.429 74.6241 317.405C77.8131 322.923 -7.22932 381.743 -3.58227 387.557C-0.137012 392.981 89.6425 341.757 93.492 347.41C97.1935 352.739 16.8492 417.861 20.9011 423.352C24.7375 428.574 110.884 371.414 115.07 376.798C119.042 381.912 42.8849 451.864 47.2203 457.019C51.8787 462.579 134.848 400.885 139.534 406.202C144.327 411.654 72.9643 486.506 77.7986 491.594C82.7944 496.885 161.793 430.077 166.762 435.057C171.96 440.186 105.728 519.668 110.846 524.419C116.301 529.454 190.101 456.964 195.314 461.419C201.038 466.239 141.878 551.121 147.307 555.293C153.301 559.898 218.967 479.983 224.625 483.751C231.092 487.978 185.068 580.601 190.875 583.587C198.071 587.343 241.978 494.421 247.881 496.006C256.588 498.334 274.708 593.55 279.875 590.752C285.365 587.805 212.219 534.079 212.633 526.017C212.881 520.517 313.502 503.494 311.583 495.969C310.079 490.211 210.176 516.159 207.488 509.469C205.175 503.804 296.421 455.385 293.327 449.018C290.516 443.42 196.405 486.173 192.96 480.197C189.771 474.679 274.814 415.859 271.167 410.044C267.721 404.621 177.942 455.845 174.092 450.192C170.391 444.863 250.735 379.741 246.683 374.249C242.847 369.028 156.701 426.188 152.514 420.804C148.543 415.69 224.699 345.737 220.364 340.582C215.706 335.023 132.736 396.717 128.05 391.4C123.257 385.948 194.62 311.096 189.786 306.007C184.79 300.717 105.792 367.525 100.823 362.545C95.6244 357.416 161.856 277.934 156.738 273.182C151.284 268.148 77.4832 340.637 72.2707 336.183C66.5463 331.363 125.706 246.48 120.277 242.308C114.283 237.704 48.6174 317.618 42.9592 313.851C36.4927 309.623 82.5162 217.001 76.7088 214.015C69.5137 210.259 25.6066 303.18 19.7033 301.596C11.1179 299.281 -7.12371 204.052 -12.2904 206.85Z" stroke="#135B50" stroke-width="19" stroke-miterlimit="10"/>
<path d="M-8.32385 204.349C-13.8279 207.417 57.3511 260.063 56.8701 268.178C56.5538 273.732 -41.1672 289.544 -39.2477 297.069C-37.8117 302.882 59.4333 278.724 62.1085 285.535C64.4074 291.321 -24.3018 337.936 -21.2082 344.303C-18.4104 350.023 73.2179 309.141 76.6489 315.239C79.7705 320.81 -2.73531 377.827 0.911736 383.641C4.35699 389.065 91.7478 339.968 95.5973 345.621C99.2313 351.004 21.3697 414.255 25.4216 419.746C29.3119 425.036 113.137 369.949 117.324 375.333C121.349 380.514 47.5669 448.461 51.9561 453.683C56.6146 459.243 137.317 399.69 142.002 405.007C146.85 410.527 77.7542 483.238 82.6423 488.393C87.692 493.751 164.369 429.016 169.392 434.064C174.644 439.261 110.68 516.602 115.865 521.299C121.32 526.334 192.906 456.053 198.24 460.521C203.965 465.341 147.086 547.961 152.515 552.133C158.576 556.683 222.069 479.167 227.741 482.813C234.261 487.108 190.424 577.212 196.286 580.265C203.548 583.967 245.39 493.578 251.482 495.122C260.202 497.329 279.094 589.499 284.328 586.647C289.833 583.579 218.654 530.933 219.135 522.818C219.451 517.263 317.172 501.451 315.252 493.926C313.816 488.114 216.571 512.272 213.896 505.46C211.597 499.674 300.306 453.059 297.213 446.692C294.415 440.973 202.787 481.855 199.356 475.757C196.234 470.185 278.74 413.169 275.093 407.354C271.648 401.931 184.257 451.028 180.407 445.375C176.773 439.991 254.635 376.741 250.583 371.249C246.693 365.96 162.868 421.047 158.681 415.663C154.656 410.481 228.438 342.535 224.048 337.312C219.39 331.753 138.688 391.306 134.002 385.989C129.155 380.469 198.25 307.758 193.362 302.603C188.313 297.245 111.636 361.979 106.613 356.931C101.361 351.735 165.325 274.394 160.14 269.696C154.685 264.662 83.0981 334.943 77.7643 330.474C72.0399 325.655 128.919 243.035 123.49 238.863C117.428 234.312 53.9359 311.829 48.2641 308.183C41.7437 303.888 85.5803 213.784 79.7191 210.731C72.4565 207.028 30.6149 297.418 24.5228 295.874C15.8026 293.667 -3.15714 201.551 -8.32385 204.349Z" stroke="#146054" stroke-width="19" stroke-miterlimit="10"/>
<path d="M-4.37306 201.966C-9.94459 205.088 59.2673 256.653 58.6649 264.755C58.2811 270.363 -36.5398 284.965 -34.634 292.611C-33.2116 298.545 61.2002 276.096 63.8754 282.907C66.1069 288.748 -19.958 333.694 -16.8105 340.128C-14.0127 345.847 75.0518 307.012 78.4828 313.11C81.6582 318.749 1.63513 373.894 5.33603 379.776C8.76767 385.321 93.7296 338.163 97.6329 343.883C101.321 349.334 25.8882 410.646 29.94 416.138C33.8303 421.427 115.266 368.467 119.453 373.851C123.532 379.1 52.1256 445.041 56.5149 450.263C61.2272 455.89 139.608 398.411 144.294 403.728C149.141 409.248 82.4205 479.952 87.3087 485.108C92.3583 490.466 166.822 427.94 171.845 432.988C177.097 438.184 115.467 513.33 120.639 518.149C126.094 523.184 195.588 455.125 200.922 459.593C206.7 464.48 151.981 544.825 157.531 549.01C163.647 553.628 225.047 478.333 230.773 482.047C237.361 486.288 195.63 574.048 201.626 576.994C208.956 580.643 248.907 492.867 255.013 494.289C263.747 496.375 283.222 585.539 288.47 582.566C294.041 579.444 224.83 527.879 225.432 519.777C225.816 514.169 320.637 499.567 318.731 491.92C317.308 485.987 222.897 508.436 220.221 501.624C217.99 495.784 304.055 450.838 300.907 444.404C298.11 438.684 209.045 477.52 205.614 471.422C202.439 465.783 282.462 410.638 278.761 404.756C275.329 399.211 190.367 446.369 186.464 440.648C182.776 435.198 258.209 373.886 254.157 368.394C250.267 363.105 168.83 416.065 164.644 410.681C160.564 405.432 231.971 339.491 227.582 334.269C222.87 328.642 144.489 386.121 139.803 380.804C134.956 375.284 201.676 304.579 196.788 299.424C191.738 294.066 117.275 356.592 112.252 351.544C107 346.348 168.629 271.202 163.458 266.383C158.003 261.348 88.5084 329.407 83.1746 324.939C77.3964 320.052 132.115 239.707 126.566 235.522C120.45 230.904 59.0497 306.199 53.3241 302.485C46.7363 298.244 88.467 210.483 82.4709 207.538C75.1409 203.889 35.1897 291.665 29.084 290.243C20.4175 288.103 0.874731 198.993 -4.37306 201.966Z" stroke="#156658" stroke-width="19" stroke-miterlimit="10"/>
<path d="M-0.285189 199.477C-5.87033 202.72 61.1992 253.123 60.5968 261.225C60.1456 266.887 -31.6002 280.36 -29.8832 288.046C-28.5283 294.034 63.0505 273.294 65.7121 280.227C67.9973 286.134 -15.4771 329.344 -12.3971 335.832C-9.61288 341.673 76.8476 304.695 80.2649 310.914C83.4267 316.675 5.95387 369.895 9.64115 375.898C13.1266 381.511 95.5922 336.345 99.428 342.119C103.116 347.57 30.2335 406.957 34.2717 412.57C38.2159 417.927 117.21 367.027 121.45 372.478C125.529 377.727 56.6189 441.675 60.9945 447.019C65.6393 452.7 141.699 397.294 146.439 402.679C151.286 408.199 86.9541 476.776 91.896 481.999C96.9995 487.424 169.196 427.039 174.219 432.087C179.525 437.351 120.163 510.356 125.402 515.121C130.978 520.17 198.191 454.373 203.579 458.909C209.425 463.742 156.919 541.878 162.536 546.009C168.652 550.627 228.014 477.622 233.793 481.404C240.381 485.644 200.837 570.886 206.834 573.832C214.285 577.494 252.292 492.264 258.398 493.686C267.078 495.705 287.217 581.688 292.532 578.66C298.118 575.418 231.048 525.014 231.65 516.912C232.102 511.251 323.847 497.778 322.13 490.091C320.775 484.103 229.197 504.843 226.535 497.911C224.25 492.003 307.724 448.793 304.644 442.305C301.86 436.464 215.4 473.442 211.982 467.223C208.82 461.463 286.293 408.243 282.606 402.239C279.121 396.627 196.655 441.792 192.819 436.018C189.131 430.567 262.014 371.181 257.975 365.568C254.031 360.211 175.038 411.11 170.797 405.659C166.718 400.41 235.628 336.462 231.253 331.118C226.608 325.437 150.548 380.843 145.809 375.458C140.961 369.939 205.293 301.362 200.351 296.138C195.248 290.713 123.052 351.098 118.029 346.05C112.723 340.786 172.085 267.781 166.845 263.016C161.27 257.968 94.0559 323.765 88.6683 319.229C82.8226 314.395 135.328 236.26 129.711 232.128C123.595 227.51 64.2332 300.515 58.4538 296.734C51.8659 292.493 91.4097 207.251 85.4136 204.305C77.9623 200.643 39.9554 285.874 33.8497 284.451C25.0483 282.419 5.03008 196.449 -0.285189 199.477Z" stroke="#166B5C" stroke-width="19" stroke-miterlimit="10"/>
<path d="M3.73787 197.041C-1.84727 200.284 63.1338 249.593 62.2888 257.668C61.7026 263.437 -26.9142 275.849 -25.2646 283.589C-23.9097 289.577 64.7146 270.532 67.3626 277.586C69.5804 283.548 -11.1284 325.102 -7.9945 331.658C-5.21032 337.499 78.5785 302.432 82.0498 308.719C85.2115 314.479 10.2754 365.896 14.0165 371.967C17.502 377.579 97.4036 334.459 101.293 340.301C105.035 345.82 34.5816 403.268 38.6737 408.948C42.6042 414.426 119.223 365.533 123.517 371.052C127.65 376.368 61.1149 438.31 65.6119 443.667C70.3106 449.416 143.982 396.138 148.721 401.522C153.622 407.109 91.6791 473.559 96.6211 478.782C101.725 484.207 171.64 426.085 176.73 431.079C182.036 436.343 125.076 507.099 130.316 511.864C135.891 516.913 200.878 453.446 206.333 457.928C212.179 462.761 161.968 538.513 167.639 542.712C173.822 547.276 231.065 476.736 236.912 480.463C243.621 484.718 206.142 567.427 212.206 570.319C219.725 573.927 255.895 491.378 262.015 492.679C270.708 494.576 291.256 577.473 296.585 574.324C302.17 571.081 237.189 521.772 238.034 513.697C238.62 507.928 327.237 495.516 325.587 487.776C324.232 481.788 235.608 500.833 232.96 493.779C230.742 487.818 311.451 446.263 308.317 439.707C305.533 433.866 221.744 468.933 218.273 462.646C215.111 456.886 290.047 405.47 286.306 399.398C282.821 393.786 202.919 436.906 199.029 431.064C195.287 425.545 265.741 368.097 261.649 362.417C257.718 356.939 181.1 405.832 176.805 400.313C172.672 394.997 239.208 333.055 234.711 327.698C230.012 321.949 156.341 375.228 151.601 369.843C146.7 364.256 208.643 297.806 203.701 292.583C198.598 287.158 128.683 345.28 123.592 340.286C118.286 335.022 175.246 264.266 170.007 259.501C164.431 254.452 99.4445 317.919 93.9894 313.437C88.1437 308.604 138.355 232.852 132.683 228.653C126.5 224.089 69.2578 294.629 63.4109 290.902C56.7017 286.647 94.18 203.938 88.1164 201.046C80.5976 197.438 44.4272 279.987 38.3079 278.686C29.6143 276.789 9.13422 193.839 3.73787 197.041Z" stroke="#177060" stroke-width="19" stroke-miterlimit="10"/>
<path d="M7.89088 194.499C2.29212 197.863 65.0232 245.875 64.1107 254.004C63.4571 259.827 -22.1118 271.352 -20.4623 279.093C-19.1748 285.134 66.5625 267.731 69.2105 274.785C71.4147 280.868 -6.51483 320.646 -3.39455 327.323C-0.623992 333.285 80.4394 300.063 83.9645 306.417C87.1801 312.245 14.8481 361.803 18.5892 367.874C22.0611 373.608 99.4663 332.481 103.356 338.323C107.084 343.963 39.1945 399.364 43.3405 405.112C47.271 410.59 121.433 363.878 125.728 369.397C129.915 374.781 65.9432 434.676 70.3727 440.088C75.0714 445.836 146.354 394.685 151.147 400.137C156.048 405.724 96.4938 470.047 101.49 475.337C106.593 480.763 174.227 424.903 179.318 429.897C184.677 435.228 129.999 503.722 135.292 508.554C140.921 513.67 203.627 452.466 209.136 457.015C215.036 461.916 167.119 535.284 172.737 539.416C178.974 544.047 234.164 475.918 239.957 479.578C246.734 483.779 211.389 563.902 217.452 566.794C225.039 570.348 259.426 490.547 265.613 491.795C274.374 493.638 295.276 573.38 300.618 570.11C306.217 566.746 243.486 518.734 244.398 510.605C245.052 504.782 330.621 493.256 328.971 485.516C327.684 479.475 241.947 496.878 239.299 489.824C237.094 483.741 315.024 443.963 311.904 437.286C309.133 431.323 228.07 464.546 224.545 458.192C221.329 452.364 293.661 402.805 289.92 396.734C286.448 391.001 209.043 432.128 205.153 426.286C201.425 420.646 269.315 365.244 265.169 359.497C261.238 354.018 187.076 400.731 182.781 395.212C178.594 389.828 242.566 329.932 238.136 324.521C233.438 318.773 162.155 369.923 157.362 364.471C152.461 358.884 212.015 294.562 207.019 289.271C201.916 283.846 134.282 339.706 129.191 334.712C123.832 329.381 178.51 260.887 173.217 256.055C167.588 250.939 104.882 312.143 99.373 307.593C93.4734 302.693 141.39 229.325 135.772 225.193C129.536 220.562 74.3449 288.691 68.5518 285.031C61.7752 280.83 97.1205 200.707 91.0569 197.815C83.4706 194.261 49.0829 274.061 42.8961 272.814C34.1888 271.038 13.2872 191.296 7.89088 194.499Z" stroke="#187664" stroke-width="19" stroke-miterlimit="10"/>
<path d="M12.0344 192.076C6.36813 195.494 66.8492 242.209 65.9367 250.338C65.2156 256.215 -17.2379 266.8 -15.602 274.662C-14.3282 280.824 68.3606 264.86 70.995 272.036C73.1992 278.119 -1.97829 316.363 1.19584 323.108C3.9664 329.07 82.2908 297.812 85.7485 304.22C88.8966 310.102 19.3437 357.884 23.0174 364.009C26.4893 369.743 101.331 330.662 105.207 336.625C108.935 342.265 43.7168 395.755 47.7953 401.557C51.7797 407.103 123.378 362.437 127.78 368.091C131.967 373.475 70.4922 431.377 75.0429 436.802C79.7955 442.618 148.622 393.649 153.415 399.101C158.37 404.755 101.272 466.896 106.268 472.187C111.425 477.68 176.657 424.068 181.801 429.13C187.228 434.407 134.885 500.706 140.177 505.539C145.807 510.655 206.339 451.848 211.916 456.343C217.815 461.244 172.194 532.228 177.865 536.428C184.169 541.005 237.227 475.462 243.087 479.068C249.864 483.269 216.652 560.806 222.783 563.644C230.369 567.199 263.042 490.092 269.35 491.353C278.125 493.075 299.326 569.595 304.736 566.271C310.403 562.853 249.921 516.138 250.834 508.009C251.555 502.132 334.009 491.547 332.373 483.685C331.099 477.523 248.41 493.486 245.776 486.311C243.571 480.228 318.749 441.984 315.575 435.239C312.804 429.277 234.48 460.535 231.022 454.127C227.874 448.245 297.427 400.463 293.753 394.338C290.281 388.604 215.44 427.685 211.564 421.721C207.836 416.082 273.054 362.592 268.975 356.79C264.991 351.244 193.392 395.91 188.99 390.256C184.803 384.872 246.278 326.969 241.728 321.545C236.975 315.729 168.149 364.698 163.356 359.246C158.401 353.592 215.499 291.45 210.503 286.16C205.346 280.667 140.114 334.278 134.97 329.217C129.542 323.939 181.886 257.641 176.593 252.808C170.964 247.692 110.431 306.499 104.855 302.004C98.9552 297.103 144.577 226.118 138.906 221.919C132.601 217.342 79.5438 282.885 73.6832 279.279C66.9066 275.078 100.119 197.541 93.9877 194.703C86.4014 191.148 53.729 268.255 47.4209 266.994C38.7 265.339 17.4982 188.819 12.0344 192.076Z" stroke="#197B68" stroke-width="19" stroke-miterlimit="10"/>
<path d="M16.242 189.599C10.5621 193.138 68.6718 238.543 67.638 246.658C66.8494 252.589 -12.381 262.369 -10.88 270.338C-9.67365 276.555 70.0204 262.097 72.5199 269.38C74.7104 275.585 2.4199 312.187 5.52656 318.986C8.2835 325.069 83.8287 295.588 87.2727 302.118C90.4747 308.067 23.5934 353.938 27.3748 360.197C30.9005 365.999 103.003 328.883 106.987 334.982C110.769 340.689 48.1008 392.254 52.3006 398.069C56.2849 403.615 125.36 361.184 129.762 366.838C134.003 372.289 75.0377 428.078 79.5748 433.625C84.3274 439.441 150.697 392.652 155.545 398.172C160.5 403.826 105.857 463.786 110.853 469.077C116.011 474.57 178.894 423.274 184.106 428.282C189.533 433.559 139.592 497.61 144.952 502.388C150.635 507.572 208.941 451.094 214.45 455.644C220.471 460.558 176.968 529.078 182.707 533.223C189.065 537.868 240.003 474.79 245.985 478.41C252.829 482.556 221.642 557.373 227.773 560.211C235.427 563.711 266.425 489.488 272.746 490.628C281.535 492.228 302.969 565.58 308.447 562.203C314.127 558.663 256.017 513.258 257.051 505.143C257.839 499.212 337.07 489.433 335.569 481.463C334.362 475.247 254.668 489.704 252.169 482.421C249.978 476.217 322.269 439.614 319.162 432.816C316.405 426.732 240.86 456.213 237.416 449.684C234.214 443.735 301.095 397.864 297.314 391.604C293.788 385.803 221.686 422.918 217.702 416.82C213.92 411.113 276.588 359.548 272.388 353.732C268.404 348.187 199.329 390.617 194.927 384.963C190.686 379.512 249.651 323.723 245.114 318.177C240.361 312.361 173.991 359.149 169.144 353.63C164.189 347.975 218.831 288.015 213.835 282.725C208.678 277.232 145.795 328.527 140.583 323.519C135.156 318.242 185.097 254.192 179.737 249.413C174.053 244.23 115.748 300.707 110.239 296.157C104.218 291.243 147.72 222.723 141.982 218.578C135.624 213.933 84.6855 277.011 78.7036 273.392C71.8595 269.245 103.046 194.429 96.9152 191.591C89.2615 188.09 58.264 262.313 51.9423 261.174C43.1539 259.573 21.7194 186.221 16.242 189.599Z" stroke="#19816D" stroke-width="19" stroke-miterlimit="10"/>
<path d="M20.5739 187.139C14.8941 190.678 70.6325 234.773 69.5312 242.941C68.6752 248.926 -7.34585 258.022 -5.84484 265.992C-4.70594 272.262 71.926 259.365 74.4255 266.648C76.5486 272.906 7.19888 307.935 10.2381 314.787C12.995 320.871 85.6798 293.341 89.1238 299.871C92.2583 305.873 28.1563 349.968 31.9377 356.228C35.4498 362.15 104.867 327.068 108.918 333.112C112.754 338.887 52.7039 388.473 56.9037 394.288C60.942 399.901 127.453 359.517 131.842 365.292C136.069 370.865 79.8024 424.5 84.3395 430.046C89.0921 435.862 152.992 391.376 157.84 396.896C162.848 402.618 110.609 460.329 115.726 465.633C120.937 471.193 181.418 422.147 186.616 427.276C192.097 432.621 144.518 494.234 149.932 499.08C155.683 504.209 211.68 450.237 217.31 454.8C223.331 459.714 182.137 525.729 187.93 529.942C194.355 534.533 243.214 474.108 249.264 477.674C256.162 481.888 227.068 553.93 233.266 556.714C240.987 560.161 270.364 488.888 276.699 489.906C285.501 491.386 307.047 561.556 312.538 558.057C318.218 554.518 262.479 510.423 263.581 502.254C264.437 496.269 340.458 487.174 338.957 479.204C337.818 472.934 261.186 485.831 258.686 478.548C256.563 472.29 325.913 437.261 322.874 430.409C320.117 424.325 247.432 451.854 243.988 445.325C240.854 439.322 304.956 395.228 301.174 388.968C297.662 383.046 228.245 418.128 224.194 412.084C220.358 406.309 280.408 356.723 276.208 350.908C272.17 345.295 205.659 385.679 201.27 379.904C197.043 374.331 253.31 320.696 248.772 315.15C244.02 309.334 180.12 353.819 175.272 348.3C170.264 342.578 222.503 284.867 217.386 279.563C212.175 274.002 151.694 323.049 146.496 317.92C141.015 312.575 188.594 250.962 183.18 246.116C177.429 240.987 121.432 294.959 115.802 290.396C109.781 285.482 150.975 219.467 145.182 215.254C138.757 210.663 89.8976 271.088 83.8483 267.521C76.9503 263.307 106.044 191.266 99.8458 188.482C92.1246 185.035 62.7484 256.308 56.413 255.29C47.611 253.81 26.065 183.64 20.5739 187.139Z" stroke="#1A8671" stroke-width="19" stroke-miterlimit="10"/>
<path d="M24.781 184.661C19.0876 188.321 72.3469 230.971 71.2457 239.139C70.3221 245.178 -2.48948 253.59 -1.0021 261.681C0.123187 268.072 73.5315 256.534 76.0848 263.884C78.2079 270.142 11.7854 303.718 14.8784 310.638C17.6217 316.843 87.4734 291.022 90.9038 297.673C94.0922 303.743 32.8369 346.007 36.6047 352.389C40.1168 358.311 106.849 325.261 110.886 331.427C114.655 337.255 57.4111 384.822 61.5973 390.759C65.6219 396.494 129.556 358.277 134.012 363.998C138.239 369.571 84.5362 421.16 89.1272 426.773C93.9336 432.657 155.256 390.339 160.157 395.926C165.166 401.648 115.504 457.191 120.554 462.549C125.765 468.11 183.897 421.379 189.15 426.576C194.631 431.921 149.521 491.231 154.935 496.077C160.686 501.206 214.442 449.685 220.073 454.248C226.094 459.163 187.208 522.672 193.068 526.831C199.493 531.422 246.341 473.598 252.39 477.164C259.355 481.324 232.233 550.577 238.553 553.374C246.341 556.767 274.097 488.445 280.553 489.477C289.369 490.835 310.972 557.757 316.531 554.204C322.224 550.543 268.965 507.894 270.066 499.725C270.99 493.686 343.801 485.275 342.314 477.184C341.189 470.792 267.78 482.331 265.227 474.98C263.104 468.722 329.527 435.146 326.434 428.227C323.69 422.022 253.839 447.842 250.408 441.192C247.22 435.121 308.475 392.857 304.707 386.476C301.195 380.553 234.463 413.603 230.426 407.438C226.657 401.609 283.901 354.042 279.715 348.105C275.69 342.371 211.756 380.588 207.3 374.866C203.073 369.293 256.776 317.705 252.185 312.091C247.378 306.208 186.056 348.526 181.154 342.939C176.146 337.217 225.808 281.673 220.758 276.315C215.547 270.755 157.415 317.485 152.162 312.289C146.681 306.944 191.791 247.634 186.377 242.788C180.626 237.658 126.869 289.179 121.239 284.616C115.218 279.702 154.104 216.192 148.244 212.033C141.818 207.442 94.9713 265.267 88.922 261.701C81.9565 257.541 109.079 188.288 102.759 185.49C94.9705 182.097 67.2154 250.419 60.7587 249.387C52.0106 247.975 30.407 181.054 24.781 184.661Z" stroke="#1B8C75" stroke-width="19" stroke-miterlimit="10"/>
<path d="M29.1795 182.145C23.4185 185.86 74.2526 227.131 73.0301 235.286C72.0929 241.446 2.54461 249.242 3.91067 257.319C5.03596 263.71 75.2745 253.597 77.6928 261.055C79.8023 267.435 16.388 299.383 19.4675 306.424C22.2108 312.629 89.0808 288.746 92.6325 295.411C95.8073 301.602 37.3987 342.036 41.1665 348.417C44.7324 354.407 108.658 323.376 112.696 329.542C116.518 335.438 62.0132 381.04 66.2532 387.044C70.2778 392.778 131.634 356.73 136.023 362.505C140.303 368.145 89.2324 417.633 93.8772 423.314C98.6836 429.198 157.537 389.183 162.438 394.77C167.5 400.559 120.375 453.746 125.479 459.171C130.811 464.745 186.461 420.439 191.713 425.636C197.248 431.048 154.5 487.92 160.036 492.78C165.84 497.977 217.356 448.907 222.986 453.47C229.128 458.398 192.429 519.389 198.357 523.494C204.904 528.099 249.618 472.86 255.721 476.494C262.754 480.6 237.603 547.064 243.99 549.809C251.847 553.147 278.102 487.79 284.559 488.822C293.388 490.058 314.928 553.717 320.554 550.11C326.315 546.396 275.48 505.125 276.703 496.969C277.64 490.809 347.188 483.014 345.822 474.937C344.697 468.545 274.459 478.658 272.04 471.2C269.931 464.821 333.345 432.873 330.266 425.832C327.522 419.627 260.652 443.509 257.101 436.845C253.926 430.653 312.334 390.22 308.567 383.838C305.001 377.848 241.075 408.879 237.038 402.713C233.215 396.818 287.72 351.216 283.48 345.212C279.455 339.477 218.099 375.526 213.71 369.751C209.43 364.111 260.501 314.622 255.856 308.941C251.049 303.058 192.196 343.073 187.295 337.486C182.233 331.697 229.358 278.51 224.254 273.084C218.922 267.51 163.273 311.816 158.02 306.62C152.485 301.208 195.233 244.335 189.698 239.476C183.893 234.279 132.377 283.349 126.747 278.785C120.605 273.858 157.304 212.866 151.376 208.761C144.829 204.157 100.115 259.395 94.0118 255.762C86.9789 251.655 112.13 185.191 105.743 182.447C97.8865 179.108 71.6311 244.466 65.1745 243.434C56.3453 242.197 34.8055 178.539 29.1795 182.145Z" stroke="#1C9179" stroke-width="19" stroke-miterlimit="10"/>
<path d="M33.51 179.683C27.7355 183.519 75.9828 223.21 74.6928 231.419C73.6882 237.633 7.45707 244.879 8.80951 253.078C9.86733 259.523 76.8821 250.768 79.3543 258.294C81.3963 264.727 21.098 295.182 24.11 302.277C26.8397 308.603 90.8091 286.484 94.2934 293.201C97.4681 299.393 41.9602 338.064 45.7143 344.567C49.2128 350.61 110.453 321.612 114.423 327.832C118.246 333.728 66.4799 377.364 70.7738 383.436C74.8523 389.238 133.51 355.343 137.952 361.186C142.233 366.826 93.9146 414.228 98.5594 419.909C103.42 425.86 159.628 388.066 164.583 393.721C169.645 399.51 125.098 450.529 130.147 455.887C135.48 461.461 188.646 419.579 194.019 424.789C199.554 430.201 159.29 484.65 164.758 489.563C170.563 494.76 219.824 448.263 225.576 452.84C231.718 457.768 197.341 516.132 203.322 520.305C209.869 524.91 252.558 472.392 258.728 475.972C265.815 480.145 242.649 543.7 249.05 546.323C256.974 549.608 281.716 487.336 288.253 488.192C297.083 489.429 318.572 549.704 324.212 545.976C329.987 542.14 281.739 502.449 283.029 494.24C284.034 488.026 350.265 480.78 348.912 472.581C347.855 466.136 280.84 474.891 278.368 467.365C276.326 460.932 336.624 430.477 333.612 423.382C330.882 417.056 266.913 439.175 263.429 432.457C260.254 426.266 315.762 387.595 312.008 381.092C308.509 375.048 247.269 404.046 243.299 397.827C239.476 391.931 291.242 348.294 286.948 342.223C282.87 336.421 224.212 370.316 219.77 364.473C215.489 358.833 263.807 311.431 259.163 305.75C254.302 299.799 198.094 337.593 193.139 331.938C188.077 326.149 232.624 275.13 227.575 269.772C222.242 264.198 169.076 306.08 163.703 300.87C158.168 295.457 198.432 241.009 192.964 236.095C187.159 230.898 137.898 277.396 132.146 272.819C126.004 267.891 160.381 209.526 154.4 205.354C147.853 200.749 105.164 253.267 98.9936 249.687C91.9068 245.513 115.073 181.959 108.672 179.336C100.748 176.051 76.0063 238.323 69.4685 237.466C60.6257 236.351 39.1496 175.955 33.51 179.683Z" stroke="#1D967D" stroke-width="19" stroke-miterlimit="10"/>
<path d="M37.9625 177.235C32.188 181.071 77.835 219.303 76.4236 227.498C75.3515 233.766 12.4914 240.531 13.7764 248.783C14.8206 255.35 78.5039 247.818 80.9625 255.465C83.0583 261.966 25.8086 290.982 28.8206 298.076C31.4828 304.456 92.4842 284.154 95.901 290.926C99.1296 297.185 46.4683 334.026 50.2763 340.595C53.8287 346.707 112.141 319.714 116.165 326.001C120.041 331.965 71.0147 373.636 75.3086 379.708C79.4409 385.577 135.278 353.822 139.774 359.733C144.109 365.44 98.4896 410.688 103.134 416.369C107.995 422.32 161.665 386.883 166.62 392.537C171.683 398.327 129.727 447.057 134.898 452.428C140.284 458.07 191.034 418.558 196.34 423.822C201.929 429.302 164.094 481.259 169.629 486.118C175.556 491.329 222.441 447.39 228.193 451.967C234.389 456.962 202.28 512.633 208.261 516.806C214.808 521.411 255.525 471.681 261.696 475.261C268.85 479.381 247.615 539.958 254.07 542.648C261.994 545.933 285.344 486.761 291.949 487.564C300.792 488.679 322.096 545.677 327.803 541.895C333.578 538.06 287.931 499.828 289.342 491.632C290.414 485.364 353.274 478.6 351.99 470.347C350.945 463.781 287.262 471.313 284.803 463.666C282.708 457.165 339.957 428.149 336.945 421.054C334.283 414.674 273.282 434.977 269.865 428.205C266.636 421.946 319.298 385.105 315.49 378.535C311.937 372.424 253.625 399.416 249.601 393.129C245.725 387.166 294.751 345.495 290.457 339.423C286.325 333.554 230.488 365.308 225.991 359.398C221.657 353.69 267.276 308.443 262.632 302.762C257.771 296.811 204.1 332.248 199.145 326.594C194.083 320.804 236.039 272.074 230.868 266.702C225.482 261.061 174.732 300.573 169.426 295.309C163.837 289.829 201.672 237.872 196.136 233.012C190.21 227.802 143.325 271.74 137.573 267.164C131.377 262.168 163.486 206.497 157.505 202.325C150.958 197.72 110.241 247.449 104.07 243.87C96.9158 239.75 118.15 179.172 111.696 176.482C103.772 173.197 80.4223 232.37 73.8171 231.567C64.9742 230.452 43.6158 173.386 37.9625 177.235Z" stroke="#1E9C81" stroke-width="19" stroke-miterlimit="10"/>
<path d="M42.3611 174.719C36.573 178.677 79.5794 215.261 78.1006 223.51C77.0285 229.778 17.5122 236.304 18.7297 244.61C19.7064 251.231 80.1122 244.989 82.5034 252.69C84.5317 259.244 30.4519 286.835 33.4502 294.051C36.1663 300.498 94.0244 281.932 97.4951 288.771C100.656 295.084 51.0169 330.175 54.8249 336.745C58.3636 342.978 113.816 317.937 117.894 324.291C121.756 330.376 75.6034 369.974 79.9512 376.113C84.0835 381.983 137.208 352.504 141.759 358.481C146.147 364.257 103.226 407.35 107.925 413.099C112.839 419.117 163.797 385.955 168.874 391.623C173.99 397.48 134.638 443.8 139.796 449.293C145.182 454.935 193.435 417.968 198.808 423.178C204.465 428.604 169.113 478.137 174.582 483.05C180.508 488.261 225.139 446.895 230.944 451.539C237.208 456.481 207.421 509.525 213.402 513.698C220.07 518.316 258.695 471.362 264.933 474.888C272.154 478.954 252.784 536.607 259.306 539.244C267.297 542.475 289.308 486.469 295.981 487.218C304.838 488.212 325.903 541.867 331.678 538.031C337.466 534.074 294.46 497.489 295.938 489.24C297.01 482.972 356.527 476.447 355.309 468.141C354.333 461.52 293.927 467.761 291.536 460.061C289.507 453.506 343.587 425.916 340.589 418.699C337.873 412.252 280.015 430.819 276.544 423.98C273.383 417.667 323.022 382.575 319.214 376.005C315.675 369.773 260.223 394.813 256.145 388.459C252.283 382.374 298.436 342.776 294.088 336.637C289.955 330.768 236.831 360.247 232.281 354.269C227.892 348.494 270.813 305.4 266.114 299.652C261.2 293.633 210.242 326.795 205.165 321.127C200.049 315.27 239.401 268.95 234.243 263.457C228.857 257.816 180.604 294.783 175.231 289.573C169.574 284.147 204.926 234.614 199.457 229.7C193.531 224.489 148.9 265.855 143.095 261.211C136.831 256.27 166.618 203.225 160.637 199.052C153.969 194.434 115.344 241.388 109.106 237.863C101.885 233.797 121.255 176.143 114.733 173.507C106.742 170.275 84.7306 226.281 78.0579 225.532C69.2014 224.538 48.0818 170.816 42.3611 174.719Z" stroke="#1FA185" stroke-width="19" stroke-miterlimit="10"/>
<path d="M46.8794 172.214C41.0238 176.225 81.4435 211.229 79.8973 219.532C78.7577 225.854 22.6526 232.087 23.8701 240.393C24.7793 247.068 81.7863 242.103 84.1774 249.804C86.1922 256.48 35.2283 282.577 38.2804 289.861C40.9829 296.43 95.7653 279.544 99.2223 286.505C102.437 292.885 55.7661 326.16 59.5604 332.851C63.0992 339.084 115.677 316.116 119.742 322.592C123.604 328.677 80.4332 366.337 84.7134 372.53C88.8321 378.521 139.204 351.128 143.808 357.173C148.197 362.948 108.096 403.902 112.781 409.771C117.695 415.79 166.116 384.984 171.071 390.639C176.188 396.496 139.427 440.527 144.652 445.966C150.038 451.607 195.862 417.132 201.235 422.342C206.945 427.835 173.97 474.809 179.559 479.737C185.539 485.015 227.848 446.275 233.654 450.919C239.917 455.861 212.398 506.212 218.447 510.33C225.115 514.949 261.701 470.837 268.06 474.376C275.282 478.442 257.91 533.065 264.446 535.58C272.504 538.757 293.231 485.985 299.917 486.613C308.788 487.486 329.547 537.85 335.335 533.893C341.191 529.882 300.771 494.878 302.317 486.575C303.457 480.254 359.562 474.021 358.345 465.714C357.435 459.04 300.428 464.005 298.037 456.304C296.022 449.628 346.986 423.53 343.934 416.247C341.232 409.678 286.449 426.563 282.992 419.603C279.777 413.222 326.449 379.947 322.654 373.256C319.115 367.023 266.537 389.991 262.473 383.515C258.611 377.431 301.781 339.771 297.501 333.578C293.382 327.587 243.01 354.979 238.406 348.934C234.018 343.159 274.119 302.206 269.433 296.336C264.519 290.318 216.098 321.123 211.143 315.469C206.027 309.612 242.787 265.581 237.563 260.142C232.176 254.5 186.353 288.976 180.979 283.766C175.269 278.272 208.245 231.298 202.656 226.371C196.676 221.093 154.366 259.832 148.561 255.188C142.297 250.247 169.816 199.896 163.768 195.777C157.099 191.159 120.514 235.271 114.154 231.731C106.933 227.665 124.305 173.043 117.769 170.528C109.71 167.35 88.9833 220.122 82.297 219.494C73.3056 218.608 52.6001 168.311 46.8794 172.214Z" stroke="#20A789" stroke-width="19" stroke-miterlimit="10"/>
<path d="M51.3312 169.767C45.4619 173.899 83.1198 207.242 81.5196 215.478C80.3126 221.853 27.6862 227.74 28.8226 236.221C29.6644 242.949 83.2861 239.14 85.6097 246.895C87.6245 253.571 39.8843 278.31 42.9229 285.715C45.6253 292.284 97.2509 277.256 100.708 284.216C103.855 290.651 60.3274 322.19 64.1217 328.881C67.7143 335.181 117.243 314.205 121.361 320.749C125.278 326.901 84.9134 362.542 89.2475 368.802C93.4201 374.86 141.026 349.676 145.562 355.775C150.005 361.617 112.67 400.363 117.356 406.233C122.323 412.318 167.965 383.842 172.974 389.564C178.144 395.488 143.988 437.109 149.267 442.616C154.707 448.325 197.925 416.259 203.353 421.537C209.063 427.03 178.706 471.473 184.295 476.4C190.275 481.678 230.316 445.632 236.122 450.277C242.439 455.286 217.201 502.821 223.304 507.007C230.04 511.572 264.573 470.424 270.932 473.963C278.275 478.043 262.727 529.553 269.33 532.014C277.456 535.138 296.899 485.6 303.639 486.295C312.523 487.047 332.868 533.987 338.656 530.029C344.525 525.897 306.867 492.555 308.468 484.319C309.675 477.943 362.301 472.057 361.165 463.576C360.323 456.847 306.701 460.656 304.378 452.902C302.363 446.226 350.103 421.486 347.064 414.081C344.362 407.513 292.736 422.541 289.279 415.58C286.132 409.146 329.66 377.607 325.865 370.915C322.273 364.615 272.744 385.591 268.626 379.048C264.709 372.896 305.074 337.255 300.74 330.994C296.567 324.936 248.961 350.121 244.425 344.022C239.982 338.179 277.317 299.434 272.632 293.564C267.664 287.478 222.023 315.954 217.014 310.232C211.843 304.308 245.999 262.687 240.721 257.181C235.28 251.472 192.062 283.537 186.635 278.26C180.924 272.766 211.282 228.324 205.692 223.396C199.712 218.118 159.671 254.164 153.865 249.52C147.548 244.511 172.786 196.975 166.683 192.789C159.947 188.225 125.414 229.373 119.055 225.834C111.712 221.754 127.261 170.244 120.657 167.782C112.531 164.659 93.0885 214.196 86.3483 213.501C77.4782 212.628 57.133 165.689 51.3312 169.767Z" stroke="#21AC8D" stroke-width="19" stroke-miterlimit="10"/>
<path d="M55.8501 167.265C49.9809 171.397 84.8768 203.079 83.2092 211.368C81.9347 217.798 32.8273 223.526 33.8424 231.994C34.738 238.79 84.7992 236.055 87.1093 243.931C89.0566 250.661 44.6614 274.056 47.7 281.461C50.3888 288.151 98.8173 274.791 102.261 281.873C105.462 288.375 64.956 318.165 68.8042 324.923C72.3831 331.345 118.984 312.374 123.102 318.917C127.005 325.191 89.636 358.773 94.024 365.101C98.1966 371.159 142.969 348.236 147.559 354.402C151.988 360.366 117.487 396.85 122.294 402.733C127.262 408.819 170.244 382.686 175.307 388.475C180.477 394.4 149.101 433.691 154.38 439.198C159.82 444.906 200.542 415.387 206.023 420.731C211.733 426.225 183.873 468.122 189.583 473.063C195.563 478.341 233.269 445.043 239.142 449.634C245.527 454.589 222.571 499.309 228.674 503.495C235.463 508.127 267.957 469.821 274.438 473.374C281.781 477.454 268.123 525.798 274.848 528.273C283.042 531.343 301.308 485.174 308.129 485.694C317.012 486.446 336.89 529.893 342.759 525.761C348.628 521.629 313.732 489.947 315.4 481.658C316.675 475.228 365.782 469.5 364.767 461.032C363.871 454.236 313.81 456.971 311.5 449.095C309.553 442.365 353.948 418.97 350.909 411.565C348.22 404.875 299.792 418.235 296.349 411.153C293.147 404.651 333.653 374.861 329.805 368.103C326.226 361.681 279.625 380.652 275.507 374.108C271.604 367.835 308.973 334.253 304.585 327.925C300.413 321.867 255.641 344.79 251.05 338.624C246.621 332.66 281.122 296.176 276.316 290.293C271.348 284.207 228.365 310.34 223.302 304.551C218.132 298.626 249.508 259.335 244.229 253.828C238.789 248.119 198.068 277.639 192.587 272.294C186.876 266.801 214.737 224.904 209.026 219.963C203.046 214.685 165.34 247.983 159.467 243.393C153.082 238.437 176.038 193.717 169.936 189.531C163.146 184.899 130.652 223.205 124.171 219.652C116.828 215.572 130.486 167.228 123.761 164.753C115.568 161.683 97.3017 207.852 90.4805 207.332C81.5832 206.702 61.7194 163.133 55.8501 167.265Z" stroke="#21B292" stroke-width="19" stroke-miterlimit="10"/>
<path d="M60.4907 164.776C54.5539 168.962 86.6879 198.982 84.9528 207.325C83.6108 213.808 38.0224 219.379 39.0238 227.968C39.852 234.818 86.4067 233.226 88.6493 241.155C90.583 248.006 49.4789 269.989 52.5039 277.516C55.1927 284.206 100.41 272.635 103.854 279.717C107.042 286.34 69.6924 314.273 73.527 321.153C77.1059 327.575 120.644 310.717 124.762 317.261C128.665 323.534 94.3452 355.124 98.7195 361.573C102.946 367.699 144.763 347.024 149.421 353.137C153.85 359.101 122.237 393.39 127.029 399.395C132.051 405.548 172.308 381.812 177.37 387.601C182.595 393.593 153.891 430.42 159.17 435.926C164.664 441.703 202.821 414.782 208.315 420.006C214.079 425.567 188.73 464.797 194.494 469.806C200.596 475.098 235.845 444.533 241.839 449.137C248.278 454.16 227.603 496.065 233.773 500.198C240.63 504.776 271.126 469.501 277.606 473.054C285.017 477.08 273.197 522.19 279.921 524.665C288.182 527.681 305.271 484.882 312.16 485.348C321.057 485.978 340.453 526.055 346.269 521.855C352.205 517.669 320.071 487.649 321.806 479.305C323.148 472.822 368.737 467.251 367.735 458.662C366.907 451.813 320.353 453.405 318.11 445.475C316.176 438.624 357.28 416.641 354.255 409.115C351.567 402.425 306.349 413.995 302.905 406.913C299.718 400.29 337.067 372.357 333.232 365.477C329.653 359.056 286.115 375.913 281.997 369.37C278.094 363.096 312.414 331.507 308.04 325.057C303.813 318.932 261.996 339.606 257.338 333.494C252.91 327.53 284.523 293.241 279.73 287.236C274.708 281.082 234.452 304.819 229.389 299.03C224.165 293.038 252.869 256.211 247.59 250.704C242.096 244.928 203.939 271.848 198.444 266.625C192.68 261.064 218.03 221.833 212.265 216.825C206.164 211.533 170.915 242.097 164.92 237.493C158.482 232.471 179.156 190.565 172.986 186.433C166.129 181.855 135.634 217.13 129.153 213.577C121.742 209.551 133.563 164.44 126.838 161.965C118.577 158.95 101.488 201.749 94.5992 201.283C85.7019 200.653 66.3061 160.576 60.4907 164.776Z" stroke="#22B796" stroke-width="19" stroke-miterlimit="10"/>
<path d="M65.0114 162.273C59.0611 166.58 88.3254 194.804 86.5904 203.147C85.1809 209.684 43.2191 215.232 44.0992 223.807C44.8599 230.711 87.9216 230.139 90.1506 238.19C92.0842 245.041 54.3792 265.748 57.3366 273.328C60.0119 280.139 101.911 270.223 105.408 277.372C108.596 283.996 74.444 310.26 78.2786 317.14C81.9114 323.629 122.279 308.75 126.451 315.361C130.408 321.702 99.0158 351.286 103.458 357.682C107.738 363.875 146.667 345.394 151.312 351.628C155.794 357.66 127.015 389.687 131.861 395.759C136.883 401.913 174.346 380.627 179.409 386.416C184.633 392.408 158.655 426.838 163.988 432.412C169.482 438.189 205.075 413.867 210.623 419.158C216.387 424.719 193.602 461.351 199.367 466.359C205.468 471.651 238.435 443.902 244.43 448.506C250.868 453.528 232.489 492.497 238.713 496.697C245.624 501.343 274.188 469.045 280.615 472.531C288.093 476.503 278.042 518.434 284.834 520.855C293.163 523.817 309.197 484.4 316.085 484.866C324.996 485.375 343.735 521.999 349.672 517.813C355.622 513.506 326.358 485.282 328.093 476.939C329.503 470.402 371.465 464.854 370.584 456.279C369.824 449.375 326.762 449.947 324.533 441.896C322.599 435.045 360.304 414.338 357.347 406.758C354.672 399.947 312.772 409.863 309.275 402.714C306.087 396.09 340.24 369.826 336.405 362.946C332.772 356.457 292.404 371.336 288.232 364.725C284.276 358.384 315.668 328.8 311.226 322.404C306.946 316.211 268.016 334.691 263.372 328.458C258.889 322.426 287.669 290.399 282.822 284.326C277.8 278.173 240.337 299.459 235.274 293.67C230.05 287.678 256.028 253.248 250.696 247.674C245.201 241.897 209.609 266.219 204.06 260.928C198.296 255.367 221.081 218.735 215.317 213.727C209.216 208.435 176.248 236.184 170.254 231.58C163.815 226.557 182.194 187.589 175.97 183.389C169.059 178.743 140.495 211.041 134.069 207.555C126.591 203.583 136.641 161.652 129.849 159.231C121.521 156.269 105.487 195.686 98.5982 195.22C89.7547 194.657 70.8943 158.019 65.0114 162.273Z" stroke="#23BC9A" stroke-width="19" stroke-miterlimit="10"/>
<path d="M69.651 159.784C63.6332 164.145 90.1492 190.586 88.2254 198.969C86.7484 205.56 48.3458 211.139 49.2259 219.715C49.973 226.739 89.3666 227.107 91.5955 235.158C93.5156 242.131 59.2093 261.56 62.1668 269.14C64.8421 275.951 103.477 267.758 106.839 275.015C110.013 281.759 79.0718 306.234 82.9603 313.182C86.5256 319.725 123.898 306.905 128.003 313.57C131.959 319.911 103.67 347.57 108.166 354.033C112.379 360.28 148.474 344.062 153.119 350.295C157.655 356.394 131.763 386.228 136.677 392.246C141.699 398.399 176.369 379.564 181.553 385.367C186.831 391.426 163.593 423.339 168.925 428.913C174.473 434.757 207.447 412.966 213.05 418.325C218.868 423.954 198.661 457.865 204.425 462.873C210.58 468.232 241.212 443.231 247.207 447.835C253.713 452.804 237.615 488.957 243.907 493.103C250.885 497.695 277.383 468.483 283.931 471.982C291.463 476.021 283.142 514.584 290.001 516.951C298.33 519.913 313.362 483.946 320.332 484.237C329.256 484.625 347.339 517.797 353.289 513.49C359.307 509.128 332.791 482.687 334.715 474.304C336.192 467.713 374.594 462.134 373.714 453.559C372.967 446.534 333.573 446.166 331.345 438.115C329.424 431.142 363.731 411.713 360.773 404.133C358.098 397.322 319.463 405.516 316.101 398.259C312.927 391.514 343.868 367.039 339.98 360.091C336.414 353.549 299.042 366.368 294.937 359.704C290.981 353.363 319.27 325.703 314.774 319.24C310.561 312.993 274.466 329.212 269.822 322.978C265.285 316.879 291.177 287.046 286.263 281.027C281.241 274.874 246.571 293.709 241.387 287.906C236.109 281.847 259.347 249.935 254.015 244.361C248.467 238.517 215.493 260.307 209.89 254.948C204.072 249.32 224.279 215.409 218.515 210.4C212.36 205.041 181.728 230.042 175.733 225.438C169.227 220.47 185.325 184.316 179.033 180.17C172.055 175.578 145.557 204.791 139.009 201.291C131.477 197.252 139.798 158.69 132.939 156.323C124.61 153.361 109.578 189.327 102.608 189.036C93.6836 188.648 75.6013 155.476 69.651 159.784Z" stroke="#24C29E" stroke-width="19" stroke-miterlimit="10"/>
<path d="M74.2907 157.294C68.3267 161.723 91.8518 186.354 89.8605 194.791C88.3161 201.436 53.5401 206.992 54.4067 215.689C55.0863 222.768 90.8656 224.143 93.0271 232.248C94.8797 239.274 64.0936 257.44 67.0375 265.141C69.6991 272.074 104.894 265.521 108.378 272.791C111.552 279.536 83.875 302.289 87.7498 309.358C91.369 315.968 125.571 305.127 129.662 311.913C133.605 318.375 108.446 343.868 112.928 350.452C117.195 356.766 150.214 342.782 154.966 349.151C159.503 355.25 136.566 382.835 141.588 388.989C146.663 395.209 178.486 378.757 183.656 384.681C188.934 390.741 168.489 420.202 173.876 425.844C179.424 431.688 209.766 412.551 215.368 417.909C221.254 423.484 203.557 454.728 209.376 459.804C215.531 465.163 243.814 443.031 249.862 447.703C256.422 452.739 242.633 485.835 248.925 489.981C255.903 494.572 280.51 468.526 287.126 471.971C294.725 475.957 288.187 511.218 295.046 513.585C303.442 516.493 317.527 484.045 324.564 484.282C333.503 484.548 350.861 514.322 356.825 509.893C362.789 505.465 339.263 480.834 341.255 472.396C342.799 465.751 377.575 460.196 376.709 451.499C376.029 444.42 340.25 443.045 338.088 434.94C336.236 427.914 367.022 409.748 364.078 402.047C361.416 395.114 326.221 401.667 322.738 394.396C319.563 387.652 347.24 364.899 343.366 357.83C339.746 351.22 305.544 362.061 301.453 355.275C297.51 348.813 322.669 323.32 318.187 316.736C313.92 310.421 280.901 324.405 276.149 318.037C271.613 311.938 294.549 284.353 289.528 278.199C284.452 271.978 252.63 288.431 247.459 282.506C242.181 276.447 262.626 246.985 257.24 241.344C251.692 235.5 221.349 254.637 215.747 249.278C209.862 243.704 227.558 212.459 221.74 207.384C215.584 202.024 187.301 224.157 181.253 219.485C174.693 214.449 188.482 181.353 182.191 177.207C175.212 172.615 150.605 198.662 143.99 195.216C136.39 191.231 142.928 155.969 136.069 153.602C127.673 150.694 113.588 183.143 106.551 182.906C97.6803 182.586 80.3085 152.933 74.2907 157.294Z" stroke="#25C7A2" stroke-width="19" stroke-miterlimit="10"/>
<path d="M78.9848 154.875C72.9533 159.357 93.555 182.124 91.4962 190.616C89.8843 197.314 58.7752 203.036 59.5742 211.787C60.2539 218.866 92.2977 221.234 94.513 229.406C96.4194 236.5 69.0322 253.389 71.9624 261.212C74.5566 268.198 106.433 263.3 109.903 270.692C113.131 277.504 88.7188 298.535 92.5262 305.658C96.1992 312.335 127.11 303.459 131.308 310.38C135.305 316.909 113.263 340.356 117.745 346.941C122.065 353.322 152.062 341.64 156.814 348.009C161.404 354.176 141.49 379.459 146.445 385.666C151.453 391.941 180.549 377.885 185.719 383.809C191.051 389.936 173.346 416.88 178.733 422.521C184.334 428.433 212.045 411.948 217.647 417.307C223.586 422.949 208.468 451.473 214.354 456.495C220.63 461.868 246.443 442.591 252.545 447.33C259.105 452.366 247.679 482.472 253.97 486.618C261.07 491.223 283.611 468.262 290.28 471.775C297.947 475.707 293.139 507.599 300.066 509.912C308.529 512.767 321.72 483.903 328.771 484.019C337.709 484.285 354.249 510.405 360.28 505.922C366.312 501.439 345.71 478.672 347.769 470.181C349.381 463.482 380.49 457.761 379.691 449.01C379.011 441.931 346.967 439.563 344.752 431.39C342.845 424.297 370.233 407.408 367.302 399.585C364.708 392.598 332.832 397.497 329.362 390.105C326.134 383.293 350.546 362.262 346.739 355.139C343.066 348.461 312.155 357.338 307.957 350.417C303.96 343.888 326.002 320.44 321.52 313.856C317.2 307.474 287.203 319.156 282.451 312.788C277.86 306.621 297.775 281.338 292.82 275.131C287.812 268.856 258.716 282.912 253.546 276.988C248.214 270.861 265.919 243.917 260.532 238.276C254.93 232.364 227.22 248.848 221.618 243.49C215.679 237.848 230.797 209.324 224.911 204.302C218.634 198.929 192.822 218.206 186.72 213.467C180.16 208.431 191.586 178.325 185.295 174.179C178.195 169.574 155.654 192.535 148.985 189.022C141.318 185.09 146.126 153.198 139.199 150.884C130.736 148.03 117.545 176.894 110.494 176.778C101.556 176.512 85.0162 150.392 78.9848 154.875Z" stroke="#26CDA6" stroke-width="19" stroke-miterlimit="10"/>
<path d="M83.6938 152.331C77.5949 156.867 95.2056 177.824 93.2143 186.262C91.5349 193.014 64.1602 198.848 64.8918 207.653C65.5039 214.785 93.8256 218.026 95.9735 226.252C97.8125 233.4 73.9993 249.093 76.9295 256.915C79.5775 263.969 107.893 260.698 111.363 268.09C114.524 274.956 93.4972 294.279 97.3584 301.469C100.964 308.2 128.758 301.369 132.956 308.29C136.953 314.82 118.081 336.289 122.617 342.941C126.938 349.322 153.912 339.942 158.718 346.379C163.362 352.613 146.403 375.648 151.425 381.801C156.487 388.143 182.722 376.592 187.892 382.516C193.224 388.643 178.38 413.082 183.82 418.791C189.422 424.703 214.554 410.939 220.157 416.297C226.096 421.94 213.623 447.689 219.563 452.779C225.84 458.152 249.289 441.865 255.459 446.55C262.14 451.6 252.902 478.634 259.314 482.794C266.414 487.399 287.117 467.671 293.733 471.117C301.4 475.048 298.267 503.505 305.262 505.765C313.793 508.565 326.157 483.233 333.208 483.349C342.16 483.494 357.868 506.08 363.899 501.597C369.998 497.061 352.387 476.104 354.379 467.666C356.058 460.914 383.433 455.08 382.701 446.275C382.089 439.143 353.767 435.902 351.619 427.676C349.78 420.528 373.594 404.835 370.663 397.012C368.015 389.958 339.7 393.23 336.23 385.838C333.069 378.972 354.096 359.649 350.234 352.459C346.629 345.727 318.835 352.558 314.636 345.637C310.64 339.108 329.512 317.639 324.976 310.987C320.655 304.605 293.681 313.985 288.875 307.549C284.231 301.315 301.19 278.28 296.168 272.127C291.106 265.785 264.871 277.336 259.701 271.412C254.369 265.285 269.213 240.846 263.772 235.137C258.171 229.225 233.038 242.989 227.436 237.63C221.497 231.988 233.97 206.238 228.03 201.149C221.753 195.776 198.303 212.063 192.134 207.378C185.453 202.328 194.691 175.294 188.279 171.134C181.179 166.529 160.475 186.256 153.86 182.811C146.193 178.879 149.326 150.423 142.331 148.163C133.8 145.363 121.436 170.695 114.385 170.579C105.433 170.434 89.7252 147.848 83.6938 152.331Z" stroke="#27D2AA" stroke-width="19" stroke-miterlimit="10"/>
<path d="M88.4563 149.857C82.4112 154.461 96.9233 173.473 94.797 182.018C93.0502 188.825 69.3423 194.825 70.0603 203.75C70.6588 211.004 95.2048 215.05 97.2852 223.33C99.0567 230.531 78.8714 245.096 81.8016 252.918C84.3822 260.026 109.258 258.396 112.714 265.909C115.929 272.843 98.2882 290.457 102.082 297.701C105.741 304.5 130.176 299.688 134.428 306.676C138.411 313.327 122.845 332.71 127.313 339.415C131.688 345.865 155.518 338.773 160.324 345.209C164.968 351.443 151.086 372.244 156.161 378.464C161.223 384.807 184.53 375.813 189.768 381.684C195.154 387.878 183.184 409.692 188.624 415.401C194.348 421.326 216.659 410.255 222.369 415.749C228.362 421.459 218.481 444.367 224.421 449.456C230.697 454.829 251.852 441.479 258.022 446.164C264.703 451.213 257.773 475.19 264.307 479.363C271.474 483.915 290.152 467.461 296.889 470.92C304.677 474.865 303.112 499.751 310.174 501.956C318.772 504.703 330.351 483.091 337.415 483.086C346.381 483.109 361.135 502.149 367.234 497.612C373.279 493.008 358.767 473.996 360.893 465.451C362.64 458.644 386.348 452.645 385.63 443.719C385.032 436.465 360.486 432.42 358.405 424.139C356.634 416.938 376.819 402.373 373.889 394.551C371.308 387.443 346.432 389.073 342.976 381.56C339.762 374.626 357.402 357.012 353.609 349.768C349.949 342.969 325.515 347.781 321.262 340.793C317.279 334.142 332.845 314.759 328.377 308.054C324.003 301.604 300.172 308.696 295.366 302.26C290.722 296.026 304.605 275.226 299.529 269.005C294.467 262.662 271.16 271.656 265.923 265.785C260.537 259.591 272.506 237.777 267.066 232.068C261.343 226.143 239.031 237.214 233.321 231.72C227.328 226.011 237.209 203.103 231.27 198.013C224.993 192.64 203.838 205.991 197.669 201.305C190.988 196.256 197.917 172.279 191.383 168.106C184.216 163.555 165.539 180.008 158.802 176.549C151.014 172.604 152.579 147.718 145.516 145.513C136.918 142.766 125.34 164.378 118.275 164.384C109.256 164.293 94.5013 145.253 88.4563 149.857Z" stroke="#28D7AE" stroke-width="19" stroke-miterlimit="10"/>
<path d="M93.217 147.38C87.1045 152.038 98.6393 169.119 96.3917 177.651C94.6312 184.578 74.6441 190.812 75.3082 199.67C75.8392 206.978 96.6094 211.828 98.6761 220.229C100.501 227.498 83.8903 240.867 86.8069 248.811C89.4413 255.986 110.702 255.916 114.212 263.496C117.359 270.484 103.226 286.403 107.074 293.715C110.665 300.568 131.862 297.787 136.115 304.776C140.152 311.494 127.702 328.831 132.292 335.55C136.598 342.054 157.406 337.264 162.266 343.768C166.897 350.123 156.117 368.446 161.179 374.788C166.295 381.198 186.687 374.642 191.912 380.633C197.297 386.828 188.189 406.137 193.629 411.846C199.352 417.771 219.018 409.475 224.728 414.968C230.721 420.678 223.553 440.758 229.493 445.847C235.823 451.287 254.494 440.914 260.731 445.545C267.412 450.595 262.859 471.46 269.393 475.633C276.614 480.252 293.333 467.018 300.137 470.423C307.993 474.315 308.05 495.697 315.112 497.903C323.778 500.595 334.637 482.65 341.769 482.59C350.681 482.546 364.482 498.039 370.595 493.381C376.707 488.723 365.173 471.642 367.42 463.111C369.181 456.183 389.168 449.95 388.504 441.092C387.973 433.784 367.202 428.934 365.136 420.532C363.31 413.264 379.922 399.895 377.005 391.951C374.371 384.775 353.11 384.846 349.599 377.265C346.452 370.278 360.586 354.358 356.738 347.047C353.146 340.194 331.95 342.974 327.697 335.986C323.66 329.267 336.11 311.93 331.52 305.211C327.213 298.708 306.405 303.498 301.546 296.994C296.915 290.639 307.694 272.316 302.632 265.973C297.516 259.564 277.125 266.12 271.9 260.128C266.515 253.934 275.623 234.625 270.183 228.916C264.46 222.991 244.794 231.287 239.084 225.793C233.091 220.084 240.259 200.004 234.319 194.914C227.988 189.474 209.318 199.848 203.081 195.216C196.4 190.167 200.953 169.302 194.419 165.129C187.198 160.51 170.479 173.743 163.674 170.338C155.819 166.447 155.762 145.064 148.7 142.859C140.034 140.166 129.175 158.112 122.043 158.171C113.01 158.202 99.2757 142.655 93.217 147.38Z" stroke="#29DDB2" stroke-width="19" stroke-miterlimit="10"/>
<path d="M97.9791 144.905C91.8529 149.684 100.235 164.753 98.0414 173.352C96.2135 180.333 80.0009 186.867 80.6515 195.847C81.115 203.209 98.0555 208.796 100.055 217.251C101.813 224.574 88.9506 236.828 91.7998 244.826C94.3667 252.055 112.134 253.558 115.631 261.26C118.831 268.315 108.084 282.526 111.985 289.905C115.631 296.825 133.415 295.996 137.654 303.106C141.691 309.824 132.6 325.143 137.176 331.983C141.537 338.554 159.201 336.053 163.993 342.61C168.678 349.033 160.921 365.054 166.104 371.41C171.22 377.819 188.684 373.822 193.962 379.881C199.401 386.143 193.167 402.826 198.662 408.603C204.439 414.595 221.338 409.059 227.115 414.499C233.162 420.276 228.586 437.514 234.647 442.617C241.045 448.004 257.285 440.674 263.576 445.373C270.379 450.437 268.026 468.109 274.56 472.282C281.849 476.847 296.65 467.022 303.521 470.373C311.377 474.265 313.069 492.022 320.253 494.241C328.865 496.867 339.181 482.668 346.38 482.555C355.359 482.457 368.032 494.322 374.212 489.61C380.338 484.831 371.956 469.763 374.15 461.164C375.978 454.182 392.19 447.648 391.54 438.668C391.076 431.307 374.136 425.72 372.137 417.264C370.379 409.942 383.241 397.688 380.392 389.69C377.825 382.46 360.057 380.957 356.561 373.255C353.36 366.201 364.107 351.989 360.206 344.61C356.56 337.69 338.777 338.52 334.538 331.41C330.501 324.691 339.591 309.373 335.015 302.532C330.655 295.962 312.99 298.463 308.198 291.905C303.514 285.483 311.27 269.461 306.087 263.106C300.971 256.696 283.508 260.694 278.23 254.635C272.79 248.373 279.024 231.689 273.53 225.913C267.753 219.92 250.854 225.456 245.076 220.016C239.029 214.239 243.606 197.001 237.544 191.898C231.147 186.512 214.906 193.841 208.615 189.142C201.813 184.079 204.165 166.407 197.631 162.234C190.342 157.668 175.542 167.494 168.67 164.142C160.814 160.251 159.122 142.493 151.939 140.274C143.327 137.649 133.011 151.847 125.811 151.96C116.765 152.112 104.038 140.18 97.9791 144.905Z" stroke="#29E2B7" stroke-width="19" stroke-miterlimit="10"/>
<path d="M102.741 142.431C96.6153 147.21 101.831 160.387 99.5838 168.919C97.7559 175.901 85.3043 182.857 85.8873 191.89C86.2834 199.306 99.3942 205.63 101.326 214.139C103.07 221.583 93.9037 232.655 96.7392 240.774C99.36 248.071 113.445 251.187 116.874 258.943C120.061 266.119 112.821 278.636 116.722 286.015C120.422 293.003 134.779 294.246 139.018 301.355C143.108 308.141 137.256 321.428 141.832 328.268C146.247 334.906 160.645 334.68 165.545 341.372C170.23 347.795 165.738 361.542 170.854 367.951C176.024 374.428 190.438 372.975 195.716 379.034C201.156 385.296 197.85 399.421 203.412 405.144C209.189 411.136 223.375 408.429 229.206 413.936C235.32 419.659 233.403 434.002 239.451 439.226C245.902 444.68 259.713 440.395 266.003 445.094C272.806 450.157 272.776 464.65 279.432 468.837C286.72 473.402 299.67 466.932 306.596 470.35C314.519 474.188 317.779 488.375 324.976 490.473C333.656 493.044 343.307 482.579 350.574 482.412C359.566 482.193 371.165 490.498 377.291 485.718C383.417 480.939 378.201 467.762 380.449 459.23C382.277 452.249 394.728 445.292 394.145 436.259C393.749 428.843 380.638 422.519 378.706 414.01C376.962 406.566 386.129 395.494 383.293 387.375C380.673 380.078 366.587 376.962 363.158 369.206C359.971 362.03 367.212 349.513 363.31 342.134C359.61 335.146 345.254 333.903 341.015 326.794C336.924 320.008 342.777 306.721 338.201 299.881C333.786 293.243 319.387 293.469 314.487 286.777C309.803 280.354 314.294 266.608 309.178 260.198C304.008 253.721 289.595 255.174 284.317 249.115C278.877 242.853 282.182 228.728 276.621 223.005C270.844 217.013 256.658 219.72 250.826 214.213C244.712 208.49 246.629 194.147 240.582 188.923C234.13 183.469 220.32 187.754 214.029 183.055C207.226 177.992 207.256 163.499 200.601 159.312C193.312 154.747 180.362 161.217 173.437 157.799C165.514 153.961 162.253 139.774 155.056 137.676C146.377 135.105 136.726 145.57 129.459 145.737C120.466 145.956 108.935 137.598 102.741 142.431Z" stroke="#2AE8BB" stroke-width="19" stroke-miterlimit="10"/>
<path d="M107.622 139.968C101.429 144.801 103.56 155.912 101.177 164.551C99.2821 171.587 90.6589 178.911 91.1745 187.999C91.6244 195.482 100.73 202.462 102.648 211.093C104.325 218.59 98.9618 228.615 101.797 236.734C104.351 244.085 114.821 248.761 118.25 256.517C121.437 263.693 117.758 274.582 121.645 282.082C125.278 289.124 136.275 292.386 140.568 299.563C144.591 306.403 142.165 317.617 146.795 324.525C151.21 331.163 162.451 333.346 167.351 340.039C172.09 346.529 170.688 357.919 175.858 364.396C181.028 370.874 192.445 372.032 197.777 378.159C203.217 384.421 202.907 395.934 208.469 401.657C214.3 407.716 225.719 407.77 231.55 413.277C237.665 419 238.461 430.515 244.522 435.618C250.974 441.071 262.407 439.898 268.698 444.597C275.555 449.728 277.861 460.92 284.516 465.107C291.926 469.686 302.89 466.678 309.83 469.975C317.753 473.813 322.662 484.254 329.859 486.351C338.606 488.869 347.768 482.219 355.048 481.931C364.054 481.59 374.403 486.253 380.597 481.42C386.79 476.587 384.659 465.476 387.042 456.837C388.937 449.801 397.56 442.477 397.045 433.389C396.595 425.906 387.489 418.926 385.571 410.296C383.894 402.798 389.258 392.773 386.422 384.654C383.869 377.303 373.399 372.627 369.969 364.871C366.782 357.695 370.462 346.806 366.574 339.306C362.942 332.264 351.944 329.002 347.651 321.825C343.628 314.985 346.054 303.771 341.424 296.863C337.009 290.225 325.768 288.042 320.868 281.349C316.13 274.859 317.531 263.469 312.361 256.992C307.192 250.515 295.774 249.356 290.442 243.229C285.002 236.967 285.312 225.454 279.75 219.732C273.919 213.672 262.5 213.618 256.669 208.111C250.554 202.388 249.758 190.873 243.697 185.771C237.246 180.317 225.812 181.49 219.521 176.791C212.665 171.661 210.358 160.468 203.703 156.281C196.293 151.702 185.329 154.71 178.389 151.413C170.466 147.575 165.557 137.134 158.36 135.037C149.613 132.519 140.452 139.169 133.171 139.457C124.165 139.798 113.762 135.067 107.622 139.968Z" stroke="#2BEDBF" stroke-width="19" stroke-miterlimit="10"/>
<path d="M112.454 137.44C106.247 142.394 105.172 151.426 102.789 160.065C100.826 167.154 96.0854 174.915 96.5335 184.056C96.916 191.593 102.017 199.229 103.989 207.927C105.666 215.425 104.038 224.456 106.86 232.697C109.4 240.168 116.201 246.337 119.616 254.215C122.79 261.512 122.685 270.652 126.627 278.22C130.313 285.329 137.83 290.596 142.055 297.827C146.132 304.734 147.079 313.808 151.696 320.838C156.164 327.543 164.14 332.001 169.027 338.815C173.819 345.373 175.575 354.353 180.745 360.831C185.968 367.375 194.336 371.079 199.668 377.205C205.162 383.535 207.74 392.301 213.41 398.158C219.241 404.218 227.879 407.153 233.764 412.728C239.933 418.519 243.401 427.016 249.516 432.187C256.022 437.708 264.958 439.633 271.37 444.345C278.294 449.422 282.869 457.368 289.524 461.555C296.934 466.133 306.102 466.548 313.095 469.913C321.139 473.764 327.455 480.432 334.719 482.476C343.533 484.939 352.206 482.104 359.554 481.762C368.506 481.354 377.659 482.443 383.866 477.489C390.073 472.534 391.149 463.503 393.531 454.863C395.494 447.774 400.235 440.014 399.787 430.873C399.404 423.336 394.303 415.699 392.331 407.001C390.654 399.504 392.282 390.473 389.46 382.232C386.921 374.76 380.119 368.591 376.704 360.714C373.53 353.417 373.635 344.276 369.693 336.708C366.007 329.599 358.49 324.333 354.265 317.102C350.188 310.195 349.241 301.12 344.624 294.091C340.156 287.385 332.18 282.927 327.294 276.114C322.501 269.556 320.745 260.575 315.576 254.098C310.352 247.553 301.984 243.85 296.652 237.723C291.159 231.394 288.58 222.628 282.911 216.77C277.08 210.71 268.441 207.775 262.556 202.201C256.388 196.41 252.919 187.912 246.804 182.742C240.298 177.221 231.362 175.296 224.95 170.584C218.026 165.507 213.451 157.561 206.796 153.374C199.386 148.795 190.219 148.38 183.225 145.016C175.181 141.164 168.866 134.497 161.601 132.453C152.787 129.989 144.115 132.824 136.767 133.167C127.747 133.628 118.648 132.607 112.454 137.44Z" stroke="#2CF3C3" stroke-width="19" stroke-miterlimit="10"/>
<path d="M185.885 357.169C111.324 263.751 80.6336 164.273 117.337 134.978C154.041 105.683 244.239 157.664 318.801 251.081C393.363 344.499 424.053 443.977 387.349 473.272C350.645 502.568 260.447 450.586 185.885 357.169Z" stroke="#2DF8C7" stroke-width="19" stroke-miterlimit="10"/>
<path d="M279.082 272.016L251.336 256L211 279.445L238.73 295.46L279.082 272.016Z" fill="#081A1E"/>
<path d="M227.101 207.527L188 207.527L245.713 164L284.813 164L227.101 207.527Z" fill="#081A1E"/>
<path d="M268.561 73.1007L267.576 105.122L307.321 129.557L308.311 97.5575L268.561 73.1007Z" fill="#081A1E"/>
<path d="M391.623 227.474L352.522 227.474L330 188.999L369.101 188.999L391.623 227.474Z" fill="#081A1E"/>
<path d="M346.719 378.582L327.527 344.513L342.341 294.519L361.541 328.574L346.719 378.582Z" fill="#081A1E"/>
<path d="M263.641 395.263L231.778 372.773L224.054 326.086L255.917 348.56L263.641 395.263Z" fill="#03110E" stroke="#2DF8C7" stroke-width="0.0782013"/>
</svg>
