<svg width="16" height="16" viewBox="0 0 16 16" fill="none" xmlns="http://www.w3.org/2000/svg">
<path d="M15.8 7.1H13.6V4.9C13.6 4.79 13.51 4.7 13.4 4.7H13C12.89 4.7 12.8 4.79 12.8 4.9V7.1H10.6C10.49 7.1 10.4 7.19 10.4 7.3V7.7C10.4 7.81 10.49 7.9 10.6 7.9H12.8V10.1C12.8 10.21 12.89 10.3 13 10.3H13.4C13.51 10.3 13.6 10.21 13.6 10.1V7.9H15.8C15.91 7.9 16 7.81 16 7.7V7.3C16 7.19 15.91 7.1 15.8 7.1ZM7.84 8.7C7.1225 8.7 6.7775 9.1 5.6 9.1C4.4225 9.1 4.08 8.7 3.36 8.7C1.505 8.7 0 10.205 0 12.06V13.1C0 13.7625 0.5375 14.3 1.2 14.3H10C10.6625 14.3 11.2 13.7625 11.2 13.1V12.06C11.2 10.205 9.695 8.7 7.84 8.7ZM10.4 13.1C10.4 13.32 10.22 13.5 10 13.5H1.2C0.98 13.5 0.8 13.32 0.8 13.1V12.06C0.8 10.6475 1.9475 9.5 3.36 9.5C3.85 9.5 4.3375 9.9 5.6 9.9C6.86 9.9 7.35 9.5 7.84 9.5C9.2525 9.5 10.4 10.6475 10.4 12.06V13.1ZM5.6 7.9C7.3675 7.9 8.8 6.4675 8.8 4.7C8.8 2.9325 7.3675 1.5 5.6 1.5C3.8325 1.5 2.4 2.9325 2.4 4.7C2.4 6.4675 3.8325 7.9 5.6 7.9ZM5.6 2.3C6.9225 2.3 8 3.3775 8 4.7C8 6.0225 6.9225 7.1 5.6 7.1C4.2775 7.1 3.2 6.0225 3.2 4.7C3.2 3.3775 4.2775 2.3 5.6 2.3Z" fill="white"/>
</svg>
