<svg xmlns="http://www.w3.org/2000/svg" viewBox="0 0 64 64"><radialGradient id="rji~5ROd2pHImZQ2gbPN1a" cx="30.833" cy="93.916" r="25.534" gradientTransform="matrix(1 0 0 -1 0 66)" gradientUnits="userSpaceOnUse"><stop offset="0" stop-color="#eed7a2"></stop><stop offset=".106" stop-color="#f1dcab"></stop><stop offset=".437" stop-color="#f8e8c3"></stop><stop offset=".744" stop-color="#fcefd2"></stop><stop offset="1" stop-color="#fef2d7"></stop></radialGradient><path fill="url(#rji~5ROd2pHImZQ2gbPN1a)" d="M3.368,7.951C6.07,8.366,8.366,6.07,7.951,3.368C7.693,1.683,6.317,0.307,4.632,0.049	C1.93-0.366-0.366,1.93,0.049,4.632C0.307,6.317,1.683,7.693,3.368,7.951z"></path><radialGradient id="rji~5ROd2pHImZQ2gbPN1b" cx="213.143" cy="289.333" r="195.628" gradientTransform="matrix(1 0 0 -1 0 66)" gradientUnits="userSpaceOnUse"><stop offset="0" stop-color="#eed7a2"></stop><stop offset=".106" stop-color="#f1dcab"></stop><stop offset=".437" stop-color="#f8e8c3"></stop><stop offset=".744" stop-color="#fcefd2"></stop><stop offset="1" stop-color="#fef2d7"></stop></radialGradient><path fill="url(#rji~5ROd2pHImZQ2gbPN1b)" d="M58.91,21.43C58.48,23.55,56.49,25,54.33,25H47.5c-2.15,0-3.84,1.93-3.44,4.15	c0.3,1.69,1.89,2.85,3.61,2.85H49c2.48,0,4.43,2.26,3.92,4.83C52.54,38.71,50.77,40,48.85,40H40.5c-0.828,0-1.5,0.672-1.5,1.5l0,0	c0,0.828,0.672,1.5,1.5,1.5h8c1.933,0,3.5,1.567,3.5,3.5l0,0c0,1.933-1.567,3.5-3.5,3.5h-4.105C42.52,50,41,51.52,41,53.395l0,0	c0,1.875,1.52,3.395,3.395,3.395h3.26c1.991,0,3.605,1.614,3.605,3.605l0,0c0,1.991-1.614,3.605-3.605,3.605H9.49	c-2.14,0-3.83-1.93-3.43-4.15C6.36,58.16,7.95,57,9.67,57h2.83c2.3,0,4.08-2.22,3.32-4.63C15.37,50.93,13.95,50,12.43,50H9	c-2.48,0-4.43-2.26-3.92-4.83C5.46,43.29,7.23,42,9.15,42H17v-5c0,0-3.71,0-7,0c-2.76,0-5-2.24-5-5.03v-0.12	C5,29.171,7.171,27,9.85,27H13c1.97,0,3.5-1.9,2.85-3.97C15.46,21.79,14.22,21,12.91,21H10c-1.657,0-3-1.343-3-3v-1	c0-1.657,1.343-3,3-3h16c1.839,0,3.288-1.657,2.951-3.556C28.693,8.993,27.324,8,25.85,8H20c-2.48,0-4.43-2.26-3.92-4.83	C16.46,1.29,18.23,0,20.15,0H52c2.48,0,4.43,2.26,3.92,4.83C55.54,6.71,53.77,8,51.85,8H44c-2.48,0-4.43,2.26-3.92,4.83	c0.38,1.88,2.15,3.17,4.07,3.17H54.5C57.29,16,59.49,18.54,58.91,21.43z"></path><linearGradient id="rji~5ROd2pHImZQ2gbPN1c" x1="32" x2="32" y1="2650.713" y2="2626.518" gradientTransform="translate(0 -2614)" gradientUnits="userSpaceOnUse"><stop offset=".003" stop-color="#7ed3f4"></stop><stop offset="1" stop-color="#9ce6fc"></stop></linearGradient><path fill="url(#rji~5ROd2pHImZQ2gbPN1c)" d="M54,12H10c-3.314,0-6,2.686-6,6v28c0,3.314,2.686,6,6,6h44c3.314,0,6-2.686,6-6V18	C60,14.686,57.314,12,54,12z"></path><linearGradient id="rji~5ROd2pHImZQ2gbPN1d" x1="32" x2="32" y1="2666" y2="2652" gradientTransform="translate(0 -2614)" gradientUnits="userSpaceOnUse"><stop offset="0" stop-color="#5eb8f1"></stop><stop offset="1" stop-color="#61c3f3"></stop></linearGradient><path fill="url(#rji~5ROd2pHImZQ2gbPN1d)" d="M4,38v8c0,3.314,2.686,6,6,6h44c3.314,0,6-2.686,6-6v-8H31l-1,2l-2-2H4z"></path><linearGradient id="rji~5ROd2pHImZQ2gbPN1e" x1="22.5" x2="22.5" y1="2653.026" y2="2626" gradientTransform="translate(0 -2614)" gradientUnits="userSpaceOnUse"><stop offset="0" stop-color="#98dcf6"></stop><stop offset="1" stop-color="#b0ecfd"></stop></linearGradient><path fill="url(#rji~5ROd2pHImZQ2gbPN1e)" d="M4,30v8h24.5c0.537,0,1.045,1.216,1.5,1c0.353-0.168,0.673-1.73,0.949-2	C31.598,36.365,32,35.479,32,34.5l0,0c0-1.933-1.567-3.5-3.5-3.5l0,0c-0.96,0-1.84-0.39-2.47-1.03	c-0.611-0.601-0.994-1.43-1.028-2.339C24.928,25.635,26.699,24,28.696,24h9.175c1.292,0,2.513-0.759,2.948-1.975	c0.425-1.187,0.061-2.384-0.7-3.145C39.58,18.34,38.82,18,38,18h-6c-1.1,0-2.1-0.45-2.82-1.18C28.45,16.1,28,15.1,28,14	c0-0.73,0.2-1.41,0.55-2H10c-3.314,0-6,2.686-6,6v5V30z"></path><linearGradient id="rji~5ROd2pHImZQ2gbPN1f" x1="23.595" x2="23.595" y1="2666" y2="2647" gradientTransform="translate(0 -2614)" gradientUnits="userSpaceOnUse"><stop offset="0" stop-color="#5392e9"></stop><stop offset="1" stop-color="#5eb6f0"></stop></linearGradient><path fill="url(#rji~5ROd2pHImZQ2gbPN1f)" d="M26.52,34.553c-1.512-2.131-4.676-2.057-6.08,0.149c-3.498,5.482-9.127,14.291-11.08,17.263	C9.571,51.987,9.784,52,10,52h24.285c1.388,0,2.652-0.578,3.544-1.503L26.52,34.553z"></path><linearGradient id="rji~5ROd2pHImZQ2gbPN1g" x1="17.68" x2="17.68" y1="2666" y2="2647.026" gradientTransform="translate(0 -2614)" gradientUnits="userSpaceOnUse"><stop offset="0" stop-color="#569ceb"></stop><stop offset="1" stop-color="#5fbdf2"></stop></linearGradient><path fill="url(#rji~5ROd2pHImZQ2gbPN1g)" d="M15.73,48.73C16.18,48.28,16.81,48,17.5,48h5.89c0.79-1.21,1.66-2.57,2.58-4H21.5	c-1.38,0-2.5-1.12-2.5-2.5c0-0.69,0.28-1.32,0.73-1.77C20.18,39.28,20.81,39,21.5,39H23c0.82,0,1.58-0.34,2.12-0.88	C25.66,37.58,26,36.82,26,36c0-1.561-1.211-2.846-2.737-2.974c-1.094,0.079-2.157,0.63-2.823,1.675	c-3.498,5.482-9.127,14.291-11.08,17.263C9.571,51.987,9.784,52,10,52h5.5c-0.31-0.41-0.5-0.94-0.5-1.5	C15,49.81,15.28,49.18,15.73,48.73z"></path><linearGradient id="rji~5ROd2pHImZQ2gbPN1h" x1="38.045" x2="38.045" y1="2666" y2="2643" gradientTransform="translate(0 -2614)" gradientUnits="userSpaceOnUse"><stop offset="0" stop-color="#5aaaee"></stop><stop offset="1" stop-color="#62c5f3"></stop></linearGradient><path fill="url(#rji~5ROd2pHImZQ2gbPN1h)" d="M55.29,50.18C54.21,51.3,52.68,52,51,52H20.8c2.34-3.56,9.19-14.28,13.44-20.94	c1.7-2.67-0.07-2.76,1.76-0.18L55.29,50.18z"></path><linearGradient id="rji~5ROd2pHImZQ2gbPN1i" x1="44.644" x2="44.644" y1="2666" y2="2646" gradientTransform="translate(0 -2614)" gradientUnits="userSpaceOnUse"><stop offset="0" stop-color="#569eec"></stop><stop offset="1" stop-color="#5fbbf2"></stop></linearGradient><path fill="url(#rji~5ROd2pHImZQ2gbPN1i)" d="M37,32h-1c-0.55,0-1.05,0.22-1.41,0.59C34.22,32.95,34,33.45,34,34c0,1.1,0.9,2,2,2	c0.55,0,1.05,0.22,1.41,0.59C37.78,36.95,38,37.45,38,38c0,1.1-0.9,2-2,2h-1c-0.55,0-1.05,0.22-1.41,0.59	C33.22,40.95,33,41.45,33,42c0,1.1,0.9,2,2,2h3c0.55,0,4.64-0.37,5,0c0.37,0.36,3,1.45,3,2c0,1.1-0.9,2-2,2h-4	c-0.55,0-1.05,0.22-1.41,0.59C38.22,48.95,38,49.45,38,50c0,1.1,0.9,2,2,2h11h3c0.811,0,1.583-0.163,2.288-0.454L37,32z"></path><linearGradient id="rji~5ROd2pHImZQ2gbPN1j" x1="49.5" x2="49.5" y1="2644" y2="2635" gradientTransform="translate(0 -2614)" gradientUnits="userSpaceOnUse"><stop offset="0" stop-color="#f5fcfe"></stop><stop offset="1" stop-color="#f7fdfe"></stop></linearGradient><path fill="url(#rji~5ROd2pHImZQ2gbPN1j)" d="M49.5,21c-2.485,0-4.5,2.015-4.5,4.5s2.015,4.5,4.5,4.5s4.5-2.015,4.5-4.5S51.985,21,49.5,21	z"></path><linearGradient id="rji~5ROd2pHImZQ2gbPN1k" x1="33" x2="33" y1="2612.033" y2="2680.267" gradientTransform="translate(0 -2614)" gradientUnits="userSpaceOnUse"><stop offset="0" stop-color="#a4a4a4"></stop><stop offset=".63" stop-color="#7f7f7f"></stop><stop offset="1" stop-color="#6f6f6f"></stop><stop offset="1" stop-color="#6f6f6f"></stop></linearGradient><path fill="url(#rji~5ROd2pHImZQ2gbPN1k)" d="M52.022,55.972L9.028,12.978c-1.361-1.361-1.361-3.589,0-4.95l0,0	c1.361-1.361,3.589-1.361,4.95,0l42.994,42.994c1.361,1.361,1.361,3.589,0,4.95l0,0C55.611,57.333,53.383,57.333,52.022,55.972z"></path></svg>
