<svg width="24" height="24" viewBox="0 0 24 24" fill="none" xmlns="http://www.w3.org/2000/svg">
<path d="M17.5984 11.129L9.08226 5.95161C8.31774 5.52581 7.35484 6.07258 7.35484 6.96774V17.0323C7.35484 17.9226 8.3129 18.4742 9.08226 18.0484L17.5984 13.1613C18.3919 12.721 18.3919 11.5742 17.5984 11.129ZM24 12C24 5.37097 18.629 0 12 0C5.37097 0 0 5.37097 0 12C0 18.629 5.37097 24 12 24C18.629 24 24 18.629 24 12ZM2.32258 12C2.32258 6.65323 6.65323 2.32258 12 2.32258C17.3468 2.32258 21.6774 6.65323 21.6774 12C21.6774 17.3468 17.3468 21.6774 12 21.6774C6.65323 21.6774 2.32258 17.3468 2.32258 12Z" fill="white"/>
</svg>
