<svg width="16" height="16" viewBox="0 0 16 16" fill="none" xmlns="http://www.w3.org/2000/svg">
<path d="M12.1406 1.44687C14.3094 2.82187 15.75 5.24375 15.75 8C15.75 12.275 12.2875 15.7406 8.01563 15.75C3.75001 15.7594 0.256255 12.2812 0.250005 8.0125C0.24688 5.25 1.68751 2.82187 3.85938 1.44687C4.04063 1.33125 4.28126 1.39062 4.38751 1.57812L4.75626 2.23125C4.85313 2.40313 4.80001 2.62188 4.63438 2.72813C2.90001 3.84063 1.75001 5.78437 1.75001 8C1.75001 11.4531 4.54688 14.25 8.00001 14.25C11.4531 14.25 14.25 11.4531 14.25 8C14.25 5.78437 13.1 3.84063 11.3656 2.73125C11.2 2.625 11.1469 2.40625 11.2438 2.23438L11.6125 1.58125C11.7156 1.39062 11.9594 1.33437 12.1406 1.44687V1.44687ZM8.75 8.625V0.375C8.75 0.16875 8.58125 0 8.375 0H7.62501C7.41876 0 7.25001 0.16875 7.25001 0.375V8.625C7.25001 8.83125 7.41876 9 7.62501 9H8.375C8.58125 9 8.75 8.83125 8.75 8.625Z" fill="white"/>
</svg>
