<svg width="78" height="80" viewBox="0 0 78 80" fill="none" xmlns="http://www.w3.org/2000/svg">
<g clip-path="url(#clip0_1335_7773)">
<path opacity="0.4" d="M38.5965 50C35.9557 49.9971 33.4239 48.9426 31.5566 47.0679C29.6893 45.1931 28.639 42.6513 28.6361 40C28.6361 35.4766 31.6631 31.6891 35.7765 30.4578L44.3548 21.8422L44.0249 20.8453C42.2896 20.35 40.4921 20 38.5965 20C34.6565 20 30.8051 21.173 27.5291 23.3706C24.2531 25.5682 21.6999 28.6918 20.1921 32.3463C18.6843 36.0009 18.2898 40.0222 19.0585 43.9018C19.8271 47.7814 21.7244 51.3451 24.5104 54.1421C27.2963 56.9392 30.8459 58.844 34.7101 59.6157C38.5744 60.3874 42.5798 59.9913 46.2198 58.4776C49.8599 56.9638 52.9711 54.4004 55.16 51.1114C57.3489 47.8224 58.5173 43.9556 58.5173 40C58.5173 38.0969 58.1686 36.2922 57.6737 34.5484L56.6824 34.2188L48.1009 42.8344C47.4974 44.8976 46.2461 46.7099 44.5334 48.0011C42.8207 49.2924 40.7383 49.9935 38.5965 50ZM75.3923 28.2969L69.8674 33.8438C69.0227 34.6844 68.0041 35.3282 66.884 35.7297C69.3585 51.5406 58.5982 66.3703 42.8499 68.8547C27.1016 71.3391 12.3306 60.5344 9.85611 44.725C7.38158 28.9156 18.1435 14.0844 33.8902 11.6C36.8748 11.1299 39.9144 11.1326 42.8981 11.6078C43.2823 10.4845 43.907 9.4594 44.7284 8.60469L50.2533 3.05781C46.4829 1.85886 42.5514 1.24913 38.5965 1.25C17.275 1.25 0 18.5938 0 40C0 61.4062 17.275 78.75 38.5965 78.75C59.9179 78.75 77.193 61.4062 77.193 40C77.1938 36.0294 76.5865 32.0822 75.3923 28.2969Z" fill="white"/>
<path d="M48.2462 12.1404L58.1568 2.18732C58.5422 1.80162 59.0192 1.52097 59.5427 1.3719C60.0662 1.22283 60.619 1.21027 61.1487 1.3354C61.6784 1.46053 62.1675 1.71922 62.5699 2.08701C62.9723 2.45481 63.2746 2.91955 63.4482 3.43732L66.3352 12.1326L74.9976 15.0311C75.5133 15.2054 75.9762 15.5089 76.3426 15.9129C76.7089 16.3169 76.9666 16.808 77.0912 17.3398C77.2159 17.8716 77.2033 18.4265 77.0549 18.9521C76.9064 19.4777 76.6269 19.9566 76.2427 20.3436L66.3461 30.3123C65.9268 30.7336 65.3993 31.0297 64.8222 31.1677C64.2451 31.3056 63.6412 31.28 63.0778 31.0936L55.343 28.5045L41.2428 42.6561C40.5411 43.3605 39.5894 43.7563 38.5971 43.7563C37.6048 43.7563 36.6531 43.3605 35.9514 42.6561C35.2497 41.9516 34.8555 40.9961 34.8555 39.9998C34.8555 39.0035 35.2497 38.048 35.9514 37.3436L50.05 23.1889L47.4681 15.4233C47.2821 14.8574 47.2564 14.2508 47.3938 13.6711C47.5312 13.0915 47.8263 12.5615 48.2462 12.1404Z" fill="white"/>
</g>
<defs>
<clipPath id="clip0_1335_7773">
<rect width="77.193" height="80" fill="white"/>
</clipPath>
</defs>
</svg>
