<svg width="48" height="43" viewBox="0 0 48 43" fill="none" xmlns="http://www.w3.org/2000/svg">
<path d="M34.2492 6.6001H13.7517C13.5067 6.6001 13.2792 6.72843 13.1508 6.93842L7.30024 16.4347C7.14274 16.6914 7.17191 17.0239 7.37023 17.2514L23.4696 36.2206C23.7496 36.5473 24.2513 36.5473 24.5313 36.2206L40.6306 17.2514C40.829 17.0239 40.8523 16.6914 40.7006 16.4347L34.85 6.93842C34.7217 6.72843 34.4942 6.6001 34.2492 6.6001ZM33.4559 8.70002L37.7899 15.9331H32.9484L29.6352 8.70002H33.4559ZM27.3253 8.70002L30.6385 15.9331H17.3565L20.6756 8.70002H27.3253ZM14.545 8.70002H18.3657L15.0524 15.9331H10.211L14.545 8.70002ZM10.7709 17.7997H15.0291L19.8006 28.9992L10.7709 17.7997ZM17.304 17.7997H30.691L24.0004 33.1874L17.304 17.7997ZM28.2003 28.9992L32.9718 17.7997H37.2299L28.2003 28.9992Z" fill="url(#paint0_linear_1335_7968)"/>
<defs>
<linearGradient id="paint0_linear_1335_7968" x1="14.4792" y1="17.6219" x2="29.7363" y2="28.1575" gradientUnits="userSpaceOnUse">
<stop stop-color="#D03CB8"/>
<stop offset="1" stop-color="#FFA500"/>
</linearGradient>
</defs>
</svg>
