<svg width="531" height="274" viewBox="0 0 531 274" fill="none" xmlns="http://www.w3.org/2000/svg">
<path d="M-21 0H394C469.663 0 531 61.337 531 137C531 212.663 469.663 274 394 274H-21V0Z" fill="#2DF8C7" fill-opacity="0.12"/>
<rect x="299.858" y="58.6244" width="152.693" height="152.693" rx="76.3467" fill="#071413" stroke="#1F7165" stroke-width="3.2488"/>
<rect x="259.249" y="86.2486" width="149.445" height="149.445" rx="74.7223" fill="#022920" stroke="#2DF8C7" stroke-width="6.49759"/>
<g filter="url(#filter0_d_127_2)">
<path d="M336.611 150.707L336.786 152.567L338.225 151.375L363.86 130.14L342.625 155.775L341.433 157.214L343.293 157.389L376.435 160.5L343.293 163.611L341.433 163.786L342.625 165.225L363.859 190.859L338.225 169.625L336.786 168.433L336.611 170.293L333.5 203.435L330.389 170.293L330.214 168.433L328.775 169.625L303.14 190.86L324.375 165.225L325.567 163.786L323.707 163.611L290.565 160.5L323.707 157.389L325.567 157.214L324.375 155.775L303.14 130.14L328.775 151.375L330.214 152.567L330.389 150.707L333.5 117.565L336.611 150.707Z" stroke="#2DF8C7" stroke-width="1.97512" shape-rendering="crispEdges"/>
</g>
<defs>
<filter id="filter0_d_127_2" x="262.224" y="91.199" width="142.552" height="142.552" filterUnits="userSpaceOnUse" color-interpolation-filters="sRGB">
<feFlood flood-opacity="0" result="BackgroundImageFix"/>
<feColorMatrix in="SourceAlpha" type="matrix" values="0 0 0 0 0 0 0 0 0 0 0 0 0 0 0 0 0 0 127 0" result="hardAlpha"/>
<feOffset dy="1.97512"/>
<feGaussianBlur stdDeviation="8.88804"/>
<feComposite in2="hardAlpha" operator="out"/>
<feColorMatrix type="matrix" values="0 0 0 0 0 0 0 0 0 1 0 0 0 0 0.22 0 0 0 0.62 0"/>
<feBlend mode="normal" in2="BackgroundImageFix" result="effect1_dropShadow_127_2"/>
<feBlend mode="normal" in="SourceGraphic" in2="effect1_dropShadow_127_2" result="shape"/>
</filter>
</defs>
</svg>
