<svg width="115" height="87" viewBox="0 0 115 87" fill="none" xmlns="http://www.w3.org/2000/svg">
<path fill-rule="evenodd" clip-rule="evenodd" d="M76.1383 82.4371C81.4973 84.6486 87.5059 85.8362 94.164 86H114.321V70.52H94.5294C90.6319 70.4381 87.0593 69.701 83.8114 68.3086C80.5635 66.9162 77.7217 64.9914 75.2858 62.5343C72.9311 60.0771 71.1041 57.2105 69.805 53.9343C69.2251 52.4353 68.7746 50.8791 68.4535 49.2659H50.8395C51.3085 52.8557 52.1902 56.2956 53.4845 59.5857C55.5956 64.7457 58.5593 69.2914 62.3755 73.2229C66.1918 77.0724 70.7794 80.1438 76.1383 82.4371ZM60.2071 15.2659C60.8964 14.4515 61.6192 13.6629 62.3755 12.9C66.1918 8.96857 70.7794 5.85619 76.1383 3.56286C81.4973 1.26952 87.5059 0.0819037 94.164 0H114.321V15.48L94.5294 15.48C90.6319 15.5619 87.0593 16.299 83.8114 17.6914C81.0131 18.8911 78.5161 20.486 76.3205 22.4761V15.2659H60.2071Z" fill="#2DF8C7"/>
<path d="M41.4571 86.3585C34.799 86.1947 31.0577 84.7905 25.6987 82.5791C20.3397 80.2857 15.7521 77.2143 11.9359 73.3648C8.11966 69.4334 5.15598 64.8876 3.04487 59.7276C1.01496 54.5676 0 49.0391 0 43.1419C0 37.2448 1.01496 31.7162 3.04487 26.5562C5.15598 21.3962 8.11966 16.8915 11.9359 13.0419C15.7521 9.1105 20.3397 5.99812 25.6987 3.70479C31.0577 1.41145 35.8205 0.265915 43.3205 0.265869H50.3205H52.3205L57 0.412978V15.6219L43.8205 15.7659C39.9231 15.8478 36.6197 16.441 33.3718 17.8334C30.1239 19.2257 27.282 21.1505 24.8462 23.6076C22.4915 26.0648 20.6645 28.9724 19.3654 32.3305C18.0662 35.6067 17.4167 39.2105 17.4167 43.1419C17.4167 47.0734 18.0662 50.7181 19.3654 54.0762C20.6645 57.3524 22.4915 60.2191 24.8462 62.6762C27.282 65.1334 30.1239 67.0581 33.3718 68.4505C36.6197 69.8429 40.4231 70.9699 44.3205 71.0518H48.3205L53.3205 71.0468L56.3205 85.7659L41.4571 86.3585Z" fill="#2DF8C7"/>
<path d="M53.476 86.3496C60.1342 86.1858 66.1436 85.1804 71.5026 82.9689C76.8616 80.6756 81.4492 77.6042 85.2654 73.7546C89.0817 69.8232 92.0453 65.2775 94.1565 60.1175C96.1864 54.9575 97.2013 49.4289 97.2013 43.5318C97.2013 37.6346 96.1864 32.1061 94.1565 26.9461C92.0454 21.7861 89.0817 17.2813 85.2654 13.4318C81.4492 9.50036 76.8616 6.38798 71.5026 4.09464C66.1437 1.80131 60.9786 0.347773 54.3205 0.265869L40.2013 0.412978V15.7459H53.3205C57.2179 15.8278 60.5817 16.8308 63.8295 18.2232C67.0774 19.6156 69.9193 21.5404 72.3552 23.9975C74.7099 26.4546 76.5368 29.3623 77.836 32.7204C79.1351 35.9965 79.7847 39.6003 79.7847 43.5318C79.7847 47.4632 79.1351 51.108 77.836 54.4661C76.5368 57.7423 74.7099 60.6089 72.3552 63.0661C69.9193 65.5232 67.0774 67.448 63.8295 68.8404C60.5817 70.2327 57.009 70.9699 53.1116 71.0518H40.2013L41.4571 86.3585L53.476 86.3496Z" fill="#2DF8C7"/>
</svg>
