<svg width="253" height="254" viewBox="0 0 253 254" fill="none" xmlns="http://www.w3.org/2000/svg">
<path d="M49.4032 0.854492C49.4032 39.0168 38.1623 50.2577 0 50.2577C38.1623 50.2577 49.4032 61.4986 49.4032 99.6609C49.4032 61.4986 60.6441 50.2577 98.8064 50.2577C60.6441 50.2577 49.4032 39.0168 49.4032 0.854492Z" fill="white"/>
<path d="M239.083 66.5399C239.083 77.3322 235.959 80.4563 225.167 80.4563C235.959 80.4563 239.083 83.5804 239.083 94.3727C239.083 83.5804 242.208 80.4563 253 80.4563C242.208 80.4563 239.083 77.3322 239.083 66.5399Z" fill="white"/>
<path d="M233.239 213.775C233.239 228.998 228.795 233.536 213.478 233.536C228.701 233.536 233.239 237.98 233.239 253.298C233.239 238.075 237.683 233.536 253 233.536C237.777 233.536 233.239 229.093 233.239 213.775Z" fill="white"/>
<path d="M189.374 116.973L152.941 80.5676C137.382 65.009 112.166 65.009 96.6074 80.5676C81.0489 96.1261 81.0489 121.343 96.6074 136.901L133.013 173.306C144.619 184.913 161.597 187.835 175.931 182.129L162.288 143.358H173.148L194.523 166.933C204.654 151.485 202.957 130.555 189.374 116.973ZM228.646 204.563L196.416 204.73L184.893 192.038C172.786 199.859 158.396 204.396 142.977 204.396C100.226 204.396 65.4069 169.605 65.4069 126.826C65.4347 84.0745 100.226 49.2835 142.977 49.2835C185.728 49.2835 220.547 84.0745 220.547 126.853C220.547 145.557 213.895 162.702 202.845 176.118L228.646 204.563Z" fill="url(#paint0_linear_2_237)"/>
<path d="M178.52 116.973L142.087 80.5676C126.528 65.009 101.312 65.009 85.753 80.5676C70.1945 96.1261 70.1945 121.343 85.753 136.901L122.158 173.306C133.765 184.913 150.743 187.835 165.076 182.129L144.536 159.473L162.293 143.358L183.669 166.933C193.8 151.485 192.102 130.555 178.52 116.973ZM217.792 204.563L185.561 204.73L174.039 192.038C161.931 199.859 147.542 204.396 132.122 204.396C89.3713 204.396 54.5525 169.605 54.5525 126.826C54.5803 84.0745 89.3713 49.2835 132.122 49.2835C174.874 49.2835 209.692 84.0745 209.692 126.853C209.692 145.557 203.04 162.702 191.991 176.118L217.792 204.563Z" fill="#2DF8C7"/>
<defs>
<linearGradient id="paint0_linear_2_237" x1="217.5" y1="19.4998" x2="147.027" y2="204.73" gradientUnits="userSpaceOnUse">
<stop offset="0.307292" stop-color="#C8FFF2"/>
<stop offset="0.515625" stop-color="#40F9BF"/>
<stop offset="0.8125" stop-color="#04030C"/>
</linearGradient>
</defs>
</svg>
